<?xml version="1.0" encoding="UTF-8"?><svg id="Layer_1" xmlns="http://www.w3.org/2000/svg" xmlns:xlink="http://www.w3.org/1999/xlink" viewBox="0 0 84.42 84.69"><defs><style>.cls-1{fill:none;}.cls-2{clip-path:url(#clippath);}.cls-3{fill:#ffdd2a;}.cls-4{fill:#ff88a2;}.cls-5{fill:#ad1f59;}.cls-6{fill:#cfffd7;}.cls-7{fill:#ddac22;}.cls-8{fill:#caffe2;}.cls-9{fill:#ad7e14;}.cls-10{opacity:.15;}.cls-10,.cls-11{isolation:isolate;}.cls-11{opacity:.2;}</style><clipPath id="clippath"><rect class="cls-1" y=".31" width="84.38" height="84.38"/></clipPath></defs><g class="cls-2"><path class="cls-6" d="M42.23,84.38c23.3,0,42.19-18.89,42.19-42.19S65.53,0,42.23,0,.04,18.89,.04,42.19s18.89,42.19,42.19,42.19Z"/></g><path class="cls-5" d="M75.77,67.67c-7.65-1.89-17.94-4.18-21.03-4.87-.73-3.04-1.58-6.96-2.43-11.75-1.78-10.09-1.55-15.2-1.55-15.2,0,0,.93-.42,1.93-1.23,.78-.63,1.6-1.5,2.06-2.6,1.01-2.39,.33-4.35-1.25-5.13-1.46-.72-3.47,1.03-3.47,1.03,0,0,1.3-9.65-4.98-12.45-6.21-2.77-12.6-1.03-14.46,6.41-3.59,14.31-.81,22.15,3.24,24.29,1.41,.74,2.9,.59,2.9,.59l.02-.02-1.24,16.04c-3.82,.85-18.84,4.2-26.02,6.15,7.74,9.43,19.48,15.45,32.63,15.45s25.93-6.57,33.64-16.73v.02Z"/><path class="cls-11" d="M36.75,46.76s3.72,.13,7.86-4.74v3.84s-3.24,4.45-8.29,6.45l.43-5.55Z"/><path d="M50.39,30.74s-.1,0-.15-.03c-.21-.08-.32-.33-.23-.54,.52-1.31,1.74-1.61,1.79-1.62,.22-.05,.44,.09,.5,.31,.05,.22-.09,.44-.31,.5-.04,0-.85,.22-1.21,1.12-.06,.16-.22,.26-.39,.26Z"/><path d="M33.89,35.88h-.06s-1.7-.24-2.12-.35c-.19-.05-.28-.2-.28-.2-.09-.14-.11-.31-.06-.46l2.06-6.16c.07-.22,.3-.34,.52-.26,.22,.07,.33,.31,.26,.52l-1.95,5.83,1.68,.26c.23,.03,.38,.25,.35,.47-.03,.21-.21,.35-.41,.35h.01Z"/><path class="cls-3" d="M42.01,84.38c13.73,0,25.93-6.57,33.64-16.72-2.33-.58-4.92-1.19-7.47-1.79-21.66,4.49-38.98,2.58-48.8,.56-3.76,.89-7.4,1.78-10.01,2.49,7.74,9.43,19.48,15.46,32.64,15.46Z"/><path class="cls-9" d="M29.76,82.36l-1.19-3.32s1.5,.5,1.88,1.53c.18,.5-.69,1.19-.69,1.8h0Z"/><path class="cls-9" d="M43.08,83.44l1.17-4.15s-2.67,.63-2.64,1.37c.03,.74,1.08,1.74,1.47,2.78Z"/><path class="cls-9" d="M53.3,82.42l-2-3.44s2.2,.48,2.37,1.06c.17,.58-.53,1.87-.37,2.38Z"/><path class="cls-7" d="M53.94,82.13c-.09-.09-.34-.33,.02-1.04,.34-.67,.2-1.29-.41-1.74-1.91-1.44-8.97-1-11.4,.24l1.04-6.87c.03-.2-.11-.4-.31-.43-.21-.04-.4,.11-.43,.31l-1.2,7.9c-.05,.23-.01,.46,.13,.68l.34,.52c.48,.72,.89,1.34,.82,1.55-.05,.14-.41,.32-1.09,.53-1.65,.53-10.04-.23-11.06-1.75-.08-.12-.14-.26,.1-.54,.24-.28,.33-.58,.31-.89v-.02l.12-2.41c0-.21-.15-.38-.36-.39-.24-.02-.38,.15-.39,.36l-.07,1.37c-1.87-1.5-7.13-2.44-9.33-2.06l2.41-5.58c.08-.19,0-.41-.2-.49-.19-.08-.41,0-.49,.2l-2.73,6.32s-.06,.08-.09,.12c.21,.13,.42,.25,.63,.37h0c.04-.07,.2-.1,.23-.11,1.83-.67,8.33,.6,9.4,2.13,.16,.23,.15,.4-.04,.62-.54,.64-.33,1.18-.15,1.44,.04,.06,.1,.12,.15,.17,3.83,1.14,7.88,1.76,12.07,1.76h.02c.66-.24,1.09-.48,1.23-.88,.2-.56-.19-1.14-.9-2.21l-.34-.52s-.03-.04-.03-.07v-.06s.05-.08,.11-.13c1.38-1.29,9.19-1.92,11.01-.55,.31,.23,.36,.46,.19,.8-.5,.99-.21,1.58,.13,1.91,.04,.04,.09,.06,.14,.1,.35-.1,.7-.2,1.05-.3-.28-.08-.51-.18-.66-.33l.03-.03Z"/><path class="cls-7" d="M65.24,75.61c-.72,.32-1.3,.64-1.73,.96l.82-4.83c.03-.2-.1-.4-.31-.43-.21-.04-.4,.1-.43,.31l-1.03,6.09c-.03,.09-.04,.19-.05,.28v.16s0,.04,.02,.06c.04,.27,.16,.49,.31,.69,.22-.12,.43-.25,.64-.37-.11-.14-.2-.28-.22-.45l.03-.2c.09-.21,.39-.58,1.32-1.1,.97-.54,2.2-1.01,3.46-1.41,.5-.39,.99-.79,1.47-1.21-1.56,.42-3.13,.95-4.3,1.47v-.02Z"/><path class="cls-9" d="M64.83,76.22s-2.03,1.05-1.96,1.85c.02,.2,.15,.41,.32,.61,.56-.33,1.11-.68,1.66-1.03l-.02-1.43Z"/><path class="cls-9" d="M20.05,78.15s-.02,.03-.03,.05c.42,.26,.85,.51,1.29,.76l1.43-1.25s-2.27-.06-2.69,.44Z"/><path d="M55.04,29.49c.07,1.51-.72,3.18-1.7,4.24-1.33,1.43-2.75,2.04-2.75,2.04-.1,1.94,.38,8.28,.98,11.85,0,0,11.35,.03,11.39-.93,.3-5.81-4.47-5.64-5.02-8.76-.47-2.66,.49-2.99-.1-5.48-.49-2.03-2.8-2.97-2.8-2.97Z"/><path d="M53.91,27.18c-.14-.1-.29-.18-.44-.24-.59-.25-1.2-.2-1.5-.12-3.58,1.06-3.77,7.08-3.77,7.08-.66,.91-1.44-2.1-1.66-3.03-.45-1.87-1.2-4.05-2.98-5.53-6.06-1.13-7.06-7.45-7.06-7.45-2.39,.82-5.5,4.04-6.31,4.9-.07,.07-.18,.02-.17-.08,.11-.98,.38-2.46,.61-3.25,3.25-10.71,13.78-12.59,21.49-5.27,1.04,.99,1.18,2.28,1.18,2.28,1.73,1.11,1.81,3.89,1.57,6.65-.2,2.23-.97,4.05-.97,4.05h.02Z"/><path d="M32.13,28.31c.26-.26,.26-.67,0-.93-.26-.26-.67-.26-.93,0-.26,.26-.26,.67,0,.93,.26,.26,.67,.26,.93,0Z"/><path d="M37.97,29.18c.26-.26,.26-.67,0-.93-.26-.26-.67-.26-.93,0-.26,.26-.26,.67,0,.93,.26,.26,.67,.26,.93,0Z"/><path d="M38.01,28.39s.38,.18,.88,0c0,0-.22,.48-.91,.48l.03-.49h0Z"/><path d="M31.38,27.29s-.42,.01-.81-.35c0,0,0,.54,.65,.82l.17-.47Z"/><path d="M34.87,39.04c-.21,0-.38-.16-.4-.37-.02-.22,.14-.42,.37-.44,.01,0,1.25-.13,1.76-1.1,.11-.2,.35-.27,.55-.17,.2,.1,.28,.35,.17,.55-.71,1.36-2.33,1.52-2.4,1.53h-.05Z"/><path class="cls-4" d="M28.9,31.26c1.11,.21,2.1-.11,2.22-.73,.12-.62-.68-1.29-1.79-1.5-1.11-.21-2.1,.11-2.22,.73-.12,.62,.68,1.29,1.79,1.5Z"/><path class="cls-4" d="M39.39,32.97c1.15,0,2.09-.53,2.09-1.18s-.93-1.18-2.09-1.18-2.09,.53-2.09,1.18,.93,1.18,2.09,1.18Z"/><path class="cls-3" d="M68.5,25.97c-3.91-2.74-12.15-3.55-12.15-3.55,1.57-11.08-4.62-14.74-13.93-15.41-7.87-.56-11.56,8-12.65,11.16-3.78,.14-7.54,.46-7.54,.46,4.37,0,8.35,.96,8.35,.96,2.38,.6,8.01,2.13,12.66,4.43,13.16,6.51,16.99,8.34,21.95,8.73,4.96,.39,7.59-3.8,3.3-6.79h0Z"/><path d="M31.14,19.74s-7.78-2.03-13.8-.6c-6.02,1.43-6.31,7.79,1.9,9.09,6.07,.96,10.15-.63,10.15-.63,0,0,.87-3.97,1.76-7.86Z"/><path d="M56.34,22.42s-9.85,1-26.43-4.64c0,0,.62-1.73,1.37-3.12,0,0,12.13,4.19,25.3,4.16,0,0,0,1.93-.23,3.58h-.01Z"/><path class="cls-10" d="M35.85,27.85s2.18-2.65,8.94-1.37c0,0,.75,5.15-3.57,5.51-3.29,.27-5.48-2.29-5.37-4.14Z"/><path class="cls-10" d="M33.6,27.56s-1.8-2.38-6.27-3.07c0,0-1.21,3.85,1.93,5.46,2.17,1.11,4.03-.08,4.34-2.39Z"/><path class="cls-8" d="M45.22,26.43v-.1c-.03-.13-.13-.23-.26-.25l-.09-.02c-5.72-1.08-8.3,.57-9.08,1.25-.83-.46-1.62-.36-2.05-.25-.59-.64-2.5-2.41-6.34-3l-.11-.02c-.15-.02-.29,.07-.33,.21l-.03,.11s-1.28,4.23,2.14,5.99c.61,.32,1.22,.47,1.81,.47,.49,0,.95-.11,1.38-.33,.89-.47,1.5-1.4,1.73-2.58,.29-.08,.87-.14,1.46,.22,.04,.94,.52,1.95,1.35,2.76,1.05,1.01,2.47,1.58,3.97,1.58,.16,0,.34,0,.5-.02,1.26-.11,2.26-.6,2.95-1.47,1.4-1.76,1.03-4.42,1.01-4.54h-.02Zm-13.4,3.27c-.67,.35-1.51,.29-2.36-.14-2.05-1.06-2.02-3.2-1.85-4.28,.03-.16,.18-.27,.34-.23,2.94,.61,4.54,1.98,5.08,2.53,.07,.07,.09,.16,.07,.26-.19,.86-.65,1.54-1.28,1.87h-.01Zm11.69,.71c-.53,.67-1.32,1.06-2.34,1.14-1.96,.16-3.21-.75-3.78-1.31-.63-.61-1.04-1.39-1.1-2.07,0-.09,.03-.17,.1-.23,.64-.53,2.85-1.92,7.75-1.13,.14,.02,.24,.14,.25,.28,.03,.79-.05,2.27-.87,3.31Z"/></svg>