<?xml version="1.0" encoding="UTF-8"?><svg id="Layer_1" xmlns="http://www.w3.org/2000/svg" xmlns:xlink="http://www.w3.org/1999/xlink" viewBox="0 0 84.39 84.69"><defs><style>.cls-1{fill:none;}.cls-2{clip-path:url(#clippath);}.cls-3{fill:#fff;}.cls-4{fill:#ffc9b3;}.cls-5{fill:#ff4135;}.cls-6{fill:#ff88a2;}.cls-7{fill:#ad1f59;}.cls-8{fill:#47d3ff;}.cls-9{clip-path:url(#clippath-1);}.cls-10{clip-path:url(#clippath-2);}.cls-11{isolation:isolate;opacity:.2;}</style><clipPath id="clippath"><rect class="cls-1" y=".31" width="84.38" height="84.38"/></clipPath><clipPath id="clippath-1"><rect class="cls-1" y=".31" width="84.38" height="84.38"/></clipPath><clipPath id="clippath-2"><rect class="cls-1" y=".31" width="84.38" height="84.38"/></clipPath></defs><g class="cls-2"><path class="cls-4" d="M42.2,84.38c23.3,0,42.19-18.89,42.19-42.19S65.5,0,42.2,0,.01,18.89,.01,42.19s18.89,42.19,42.19,42.19Z"/></g><g class="cls-9"><g><path class="cls-7" d="M75.68,67.65c-7.65-1.89-17.97-4.19-21.05-4.88-.73-3.04-1.58-6.98-2.42-11.75-1.78-10.09-1.55-15.2-1.55-15.2,0,0,2.93-1.33,3.98-3.82,1-2.39,.33-4.34-1.24-5.12-1.46-.72-3.47,1.03-3.47,1.03,0,0,1.36-9.17-4.95-12.44-3.11-1.62-12.04-3.22-13.9,4.22-3.58,14.29-4.92,25.69-.8,27.68,2.31,1.12,6.36-.64,6.36-.64l-1.23,16.04c-3.81,.84-18.81,4.19-26,6.15,7.74,9.43,19.48,15.46,32.64,15.46s25.93-6.57,33.64-16.72h-.01Z"/><path class="cls-11" d="M36.64,46.73s4.44-1.48,7.86-4.74v3.84s-3.24,4.45-8.29,6.45l.43-5.55Z"/><path d="M50.28,30.71c-.05,0-.1,0-.15-.03-.21-.08-.32-.33-.23-.54,.52-1.31,1.74-1.61,1.79-1.62,.22-.05,.44,.09,.5,.31,.05,.22-.09,.44-.31,.5-.04,0-.85,.22-1.21,1.12-.06,.16-.22,.26-.39,.26Z"/><path d="M33.79,35.85h-.06s-1.7-.24-2.12-.35c-.19-.05-.28-.2-.28-.2-.09-.14-.11-.31-.06-.46l2.06-6.16c.07-.22,.3-.34,.52-.26,.22,.07,.33,.31,.26,.52l-1.95,5.83,1.68,.26c.23,.03,.38,.25,.35,.47-.03,.21-.21,.35-.41,.35h.01Z"/></g></g><g class="cls-10"><g><path class="cls-8" d="M62.23,79.32l-2.41-6.9c-19.01,5.54-31.12,0-31.12,0l-1.63,9.17c4.69,1.8,9.79,2.81,15.12,2.81,7.26,0,14.08-1.85,20.04-5.08Z"/><path class="cls-5" d="M35.61,62.66h-.05v.13c-3.82,.84-18.82,4.19-26.01,6.15,5.67,6.91,13.49,11.97,22.43,14.2,.34-7.62,1.29-15.88,3.65-20.49h-.02Z"/><path class="cls-5" d="M75.83,67.67c-7.65-1.89-17.97-4.19-21.05-4.88,0-.03-.01-.06-.02-.09-.05,0-.1-.02-.15-.02-.56,1.59-3.32,8.05-.58,20.02,8.8-2.57,16.41-7.91,21.81-15.03h-.01Z"/><path class="cls-3" d="M43.35,66.75c0-.38,.29-.71,.68-.7,.39,0,.71,.29,.72,.67,0,.38-.3,.69-.69,.71h-.03c-.37,0-.68-.31-.68-.68Zm-1.16,.57c-.38-.05-.64-.4-.6-.78,.07-.38,.42-.64,.79-.6,.38,.05,.65,.4,.6,.78-.05,.36-.36,.61-.72,.6h-.07Zm2.93-.63c-.06-.38,.2-.74,.59-.8,.38-.06,.73,.21,.79,.58,.06,.38-.2,.73-.59,.79h-.13c-.33,0-.62-.25-.67-.58h.01Zm-4.77,.22c-.36-.11-.57-.51-.44-.87,.12-.37,.51-.56,.88-.45,.36,.11,.57,.51,.45,.87-.1,.3-.39,.49-.69,.49-.06,0-.12-.01-.2-.04Zm6.51-.51c-.09-.36,.13-.75,.5-.84,.38-.1,.76,.12,.86,.48,.1,.38-.13,.75-.5,.85-.06,.02-.14,.03-.2,.02-.3,0-.58-.21-.66-.52h0Zm-8.24-.23c-.34-.19-.46-.61-.27-.94,.19-.34,.61-.47,.95-.28,.34,.19,.46,.61,.27,.95-.13,.23-.38,.36-.63,.35-.11,0-.22-.03-.32-.08Zm9.95-.23c-.14-.36,.05-.75,.41-.89,.36-.13,.76,.04,.89,.4,.13,.37-.04,.76-.41,.9-.08,.03-.18,.05-.26,.04-.27,0-.53-.18-.63-.45Zm1.66-.63c-.17-.35-.02-.76,.33-.92h0c.35-.15,.76,0,.93,.34,.16,.35,0,.77-.35,.92h0c-.11,.05-.21,.07-.33,.06-.25,0-.49-.15-.6-.4Zm-13.17-.21c-.29-.25-.32-.68-.07-.98,.25-.29,.69-.33,.98-.08,.29,.25,.33,.68,.08,.98-.15,.17-.35,.25-.56,.24-.15,0-.3-.05-.43-.16Zm14.77-.54c-.19-.34-.06-.76,.28-.94,.34-.18,.76-.06,.94,.29,.19,.34,.06,.76-.28,.93-.11,.06-.23,.09-.35,.08-.24,0-.48-.13-.59-.36Zm-16.1-.89c-.22-.33-.12-.76,.2-.97,.33-.21,.76-.11,.97,.21,.21,.32,.11,.75-.21,.96-.13,.08-.26,.12-.4,.11-.23,0-.44-.12-.56-.31Zm17.64,.05c-.2-.33-.09-.76,.24-.96,.32-.21,.75-.1,.95,.23,.21,.33,.1,.75-.23,.95-.12,.07-.25,.11-.38,.1-.23,0-.45-.13-.58-.33h0Z"/></g></g><path d="M53.6,22.47c-.46-2.35-1.17-3.59-1.82-4.26,.43-.27,.83-.61,1.17-1.05,1.38-1.82,1.25-6.34-3.51-6.36-1.94,0-3,1.18-3.58,2.4-3.58-2.2-6.74-2.18-8.57-1.68-3.05,.84-5.03,4.29-6.51,7.54-.43,.94-1.61,2.06-1.98,3.1-.71,1.99-.49,2.39-.29,4.04,.2,1.65-1.84,2.8-1.09,4.67,.75,1.87,.91,1.74,.91,1.74,0,0-.44-2.19,.33-3.37,.77-1.18,1.68-1.44,1.27-3.63-.22-1.21,.23-2.08,.83-2.81,1.63-1.58,4.69-4.3,6.62-4.33,.28,0,3.33,5.3,6.18,8.42,1.64,1.79,2.37,2.22,3.02,3.61,0,.29-.13,.55-.4,.93-1.28,1.8-.58,2.41-.38,3.82,.2,1.41-1.13,3.2-1.13,3.2,0,0,.09,.18,1.56-1.19,1.48-1.37,.13-3.28,.99-4.69,.7-1.14,2.17-2.62,2.81-4.26,.33-.37,.73-.74,1.19-1.03,.27-.17,.53-.3,.8-.39,.4-.14,1.17-.16,1.72,.21,0,0,.29-2.48-.14-4.64h0Z"/><path d="M33.16,27.09l-1.76-.19c-.23-.03-.42,.14-.45,.36-.02,.22,.14,.42,.36,.45l.72,.08s-.04,.09-.05,.15c-.03,.26,.16,.5,.42,.53,.26,.03,.5-.16,.53-.42,0-.05,0-.1-.01-.15l.15,.02h.04c.2,0,.38-.15,.4-.36,.02-.22-.14-.42-.36-.45v-.02Z"/><path d="M39.85,27.81l-2.14-.23c-.24-.03-.42,.14-.45,.36-.02,.22,.14,.42,.36,.45l1.15,.12s-.04,.08-.04,.13c-.03,.26,.16,.5,.42,.53,.26,.03,.5-.16,.53-.42,0-.05,0-.09-.01-.13h.09s.03,0,.04,0c.2,0,.38-.15,.4-.36,.02-.22-.14-.42-.36-.45h.01Z"/><path d="M37.44,37.91s-.57-.13-.71-.69c-.05-.22-.27-.35-.49-.29-.22,.05-.35,.28-.29,.49,.04,.16,.1,.29,.16,.41-.24,.75-1.17,.73-1.22,.74-.25-.02-.41,.16-.42,.39-.01,.23,.16,.41,.39,.42h.07c.5,0,1.34-.21,1.77-.91,.29,.18,.55,.24,.57,.24h.08c.19,0,.35-.13,.39-.32,.05-.22-.09-.43-.31-.48h.01Z"/><path class="cls-6" d="M28.9,31.26c1.11,.21,2.1-.11,2.22-.73,.12-.62-.68-1.29-1.79-1.5-1.11-.22-2.1,.11-2.22,.73-.12,.61,.68,1.29,1.79,1.5Z"/><path class="cls-6" d="M39.39,32.97c1.15,0,2.09-.53,2.09-1.18s-.93-1.18-2.09-1.18-2.09,.53-2.09,1.18,.93,1.18,2.09,1.18Z"/></svg>