<?xml version="1.0" encoding="UTF-8"?><svg id="Layer_1" xmlns="http://www.w3.org/2000/svg" xmlns:xlink="http://www.w3.org/1999/xlink" viewBox="0 0 84.47 84.39"><defs><style>.cls-1{fill:none;}.cls-2{clip-path:url(#clippath);}.cls-3{opacity:.1;}.cls-4{fill:#0061ff;}.cls-5{fill:#ebca31;}.cls-6{fill:#ffdd2a;}.cls-7{fill:#ff9fb6;}.cls-8{fill:#fffac9;}.cls-9{fill:#47d3ff;}.cls-10{clip-path:url(#clippath-1);}.cls-11{clip-path:url(#clippath-2);}.cls-12{opacity:.2;}.cls-12,.cls-13{isolation:isolate;}.cls-13{opacity:.61;}</style><clipPath id="clippath"><rect class="cls-1" x=".09" y=".01" width="84.38" height="84.38"/></clipPath><clipPath id="clippath-1"><rect class="cls-1" x=".09" y=".01" width="84.38" height="84.38"/></clipPath><clipPath id="clippath-2"><rect class="cls-1" x=".09" y=".01" width="84.38" height="84.38"/></clipPath></defs><g class="cls-2"><path class="cls-8" d="M42.19,84.38c23.3,0,42.19-18.89,42.19-42.19S65.49,0,42.19,0,0,18.89,0,42.19s18.89,42.19,42.19,42.19Z"/></g><g class="cls-10"><g><path class="cls-7" d="M75.97,67.65c-7.65-1.89-17.97-4.19-21.05-4.88-.73-3.04-1.58-6.98-2.42-11.75-1.78-10.09-1.55-15.2-1.55-15.2,0,0,2.93-1.33,3.98-3.82,1-2.39,.33-4.34-1.24-5.12-1.46-.72-3.47,1.03-3.47,1.03,0,0,1.36-9.17-4.95-12.44-3.11-1.62-12.04-3.22-13.9,4.22-3.58,14.29-4.92,25.69-.8,27.68,2.31,1.12,6.36-.64,6.36-.64l-1.23,16.04c-3.81,.84-18.81,4.19-26,6.15,7.74,9.43,19.48,15.46,32.64,15.46s25.93-6.57,33.64-16.72h-.01Z"/><path class="cls-12" d="M36.93,46.73s4.44-1.48,7.86-4.74v3.84s-3.24,4.45-8.29,6.45l.43-5.55Z"/><path d="M50.57,30.71c-.05,0-.1,0-.15-.03-.21-.08-.32-.33-.23-.54,.52-1.31,1.74-1.61,1.79-1.62,.22-.05,.44,.09,.5,.31,.05,.22-.09,.44-.31,.5-.04,0-.85,.22-1.21,1.12-.06,.16-.22,.26-.39,.26Z"/><path d="M34.08,35.85h-.06s-1.7-.24-2.12-.35c-.19-.05-.28-.2-.28-.2-.09-.14-.11-.31-.06-.46l2.06-6.16c.07-.22,.3-.34,.52-.26,.22,.07,.33,.31,.26,.52l-1.95,5.83,1.68,.26c.23,.03,.38,.25,.35,.47-.03,.21-.21,.35-.41,.35h0Z"/></g></g><g class="cls-11"><path class="cls-9" d="M75.95,67.65c-7.65-1.89-17.97-4.19-21.05-4.88,0-.03-.02-.07-.02-.1-1.62,1.19-9.68,6.78-17.15,5.89-5.3-.64-3.28-4.42-2.43-5.71-4.34,.97-18.65,4.18-25.62,6.07,7.74,9.43,19.48,15.46,32.64,15.46s25.93-6.57,33.64-16.72h0Z"/></g><path d="M51.14,16.12s-.54-1.62-2.8-2.41c-5.59-1.96-10.65-1.05-13.21-.2-1.18,.39-2.91,2.24-3.21,4.2-.55,.55-2.16,2.49-1.52,5.9,.36-1.04,.61-2.25,1.66-4.29,.26,.61,.6,1.29,1.41,1.87,3.67,2.66,10.58,2.33,14.37,1.43,0,0-1.42,4.85-.35,8.16,.17,.97,1.18,1.1,1.39,.68,0,0,.24-2.71,2.22-3.99,.8-.51,1.62-.7,2.3-.66l.46-1.51c2.26-7.4-.37-9.68-2.71-9.18h0Z"/><path d="M32.26,27.94c.25-.25,.25-.65,0-.89-.25-.25-.65-.25-.89,0-.25,.25-.25,.65,0,.89,.25,.25,.65,.25,.89,0Z"/><path d="M38.06,28.77c.25-.25,.25-.65,0-.89-.25-.25-.65-.25-.89,0-.25,.25-.25,.65,0,.89,.25,.25,.65,.25,.89,0Z"/><path d="M34.96,38.74c-.21,0-.38-.16-.4-.37-.02-.22,.14-.42,.37-.44,0,0,1.25-.13,1.76-1.1,.11-.2,.35-.27,.55-.17,.2,.1,.28,.35,.17,.55-.71,1.36-2.33,1.52-2.4,1.53h-.05Z"/><path class="cls-6" d="M55.6,21.24l1.71-7.8-24.32-5.32-1.92,7.81c-4.26-.06-7.12,.61-7.41,1.99-.55,2.51,7.54,6.41,18.07,8.72,10.53,2.31,19.51,2.15,20.06-.37,.31-1.42-2.12-3.27-6.2-5.04h.01Z"/><g class="cls-3"><path d="M59.47,25.81c.22-.17,.35-.37,.42-.59,.13-.48-.34-1.13-1.39-1.92-.18-.14-.46-.1-.61,.08-.14,.19-.1,.46,.08,.61,.75,.57,1.05,.99,1.09,1.03,0,.03-.05,.08-.09,.11-1.45-1.68-4.02-2.64-4.17-2.7-.22-.08-.47,.03-.55,.25-.08,.22,.03,.47,.25,.55,.83,.3,2.54,1.12,3.61,2.23-1.28,.27-3.51,.23-6.2-.07-.9-1.93-2.62-3.2-2.72-3.28-.19-.14-.46-.1-.59,.09-.14,.19-.1,.46,.09,.59,.02,.01,1.33,.99,2.18,2.47-1.65-.21-3.43-.49-5.25-.83-.17-1.44-.59-2.6-.62-2.68-.08-.22-.33-.33-.55-.25-.22,.08-.33,.33-.25,.55,0,.01,.35,.98,.54,2.2-1.86-.37-3.75-.79-5.55-1.25,.54-1.03,1.15-1.76,1.17-1.77,.15-.18,.14-.45-.05-.61-.18-.15-.45-.14-.61,.05-.05,.06-.77,.91-1.36,2.1-1.79-.48-3.48-.98-4.97-1.51,1.09-.94,2.25-1.47,2.26-1.47,.22-.09,.31-.35,.22-.57-.09-.22-.34-.31-.57-.22-.09,.03-1.58,.71-2.83,1.93-1.21-.46-2.24-.93-3.03-1.37-.43-.25-.74-.47-.99-.65,1.23-.69,2.71-.86,2.73-.87,.24-.02,.4-.24,.38-.47-.02-.24-.22-.4-.47-.38-.11,.01-1.85,.23-3.28,1.1-.09-.13-.13-.22-.13-.26s0-.09,.06-.16c.16-.17,.15-.45-.02-.61-.17-.16-.45-.15-.61,.02-.23,.25-.33,.55-.29,.87,.03,.21,.13,.42,.29,.64-.49,.43-.88,.97-1.06,1.66-.06,.23,.08,.47,.31,.53,.03,0,.07,.01,.11,.01,.19,0,.37-.13,.41-.32,.14-.51,.45-.93,.83-1.26,.33,.27,.77,.57,1.3,.88,.75,.43,1.74,.88,2.84,1.31-.3,.38-.56,.78-.75,1.23-.09,.22,0,.47,.22,.56,.06,.02,.11,.03,.17,.03,.16,0,.32-.09,.39-.25,.21-.46,.49-.87,.82-1.25,1.57,.57,3.37,1.12,5.29,1.63-.17,.46-.32,.95-.4,1.44-.03,.24,.13,.46,.37,.49h.06c.21,0,.39-.15,.42-.37,.07-.47,.21-.93,.39-1.35,1.95,.5,3.99,.96,6.01,1.34,.02,.53,0,1.06-.09,1.58-.05,.23,.1,.46,.33,.5h.08c.21,0,.38-.14,.42-.34,.1-.53,.13-1.05,.11-1.58,1.95,.35,3.87,.65,5.62,.85,.17,.46,.29,.94,.3,1.45,0,.23,.19,.41,.43,.41h.01c.24,0,.42-.21,.41-.45-.01-.47-.1-.9-.23-1.33,1.36,.14,2.6,.22,3.67,.22,1.18,0,2.12-.09,2.79-.3,.24,.38,.38,.78,.39,1.2,0,.24,.19,.42,.43,.42s.42-.19,.42-.43c0-.56-.18-1.09-.47-1.55l.02,.03Z"/><path d="M32.46,12.35s.71,.37,1.91,.88l-1.09,4.4c-.06,.23,.08,.46,.31,.51,.03,0,.07,.01,.1,.01,.19,0,.37-.13,.41-.33l1.05-4.27c.97,.39,2.17,.85,3.56,1.3l-.78,4.02c-.05,.23,.1,.46,.34,.5h.08c.21,0,.38-.14,.42-.34l.75-3.93c1.12,.35,2.34,.69,3.64,1.01l-.96,3.83c-.06,.23,.08,.46,.31,.53,.03,0,.07,.01,.1,.01,.19,0,.37-.13,.41-.32l.96-3.84c1.37,.31,2.83,.58,4.36,.8l-1.06,4.09c-.06,.23,.08,.46,.31,.53,.03,0,.07,.01,.1,.01,.19,0,.37-.13,.41-.32l1.09-4.2c1.19,.15,2.41,.25,3.67,.31l-.96,4.38c-.05,.23,.09,.46,.33,.51h.09c.19,0,.38-.14,.42-.33l.99-4.54c.35,0,.71,.02,1.07,.02h.98c.24,0,.42-.21,.42-.43s-.21-.42-.43-.42c-.62,.01-1.23,0-1.85,0l.51-2.36c.05-.23-.09-.46-.33-.51-.24-.05-.46,.09-.51,.33l-.55,2.52c-1.25-.05-2.46-.15-3.63-.3l.62-2.38c.06-.23-.08-.46-.31-.53-.23-.06-.46,.08-.53,.31l-.64,2.48c-1.53-.21-2.99-.48-4.36-.79l.63-2.51c.06-.23-.08-.46-.31-.53-.23-.06-.46,.08-.51,.31l-.64,2.54c-1.33-.32-2.57-.66-3.69-1.02l.49-2.55c.05-.23-.1-.46-.34-.5-.23-.05-.46,.1-.5,.34l-.47,2.43c-1.39-.46-2.58-.91-3.52-1.3l.59-2.42c.06-.23-.08-.46-.31-.51-.24-.06-.47,.08-.51,.31l-.57,2.3c-1.07-.46-1.69-.78-1.71-.79-.21-.1-.47-.02-.58,.18-.11,.21-.03,.47,.18,.58h.01Z"/></g><path class="cls-5" d="M57.3,13.44c.27-1.24-4.95-3.45-11.66-4.92-6.71-1.47-12.37-1.65-12.65-.41s4.95,3.45,11.66,4.92c6.71,1.47,12.37,1.65,12.65,.41Z"/><path class="cls-4" d="M31.4,14.59s9.76,5.31,24.42,5.6l-.77,3.18s-12.58,.64-24.4-5.71l.75-3.06h-.01Z"/><path class="cls-13" d="M35.48,28.96c-.15-.97,.32-1.93,1.21-2.34,.73-.34,1.83-.58,3.41-.29,3.36,.61,4.5,1.88,4.31,3.24-.19,1.36-1.44,3.83-3.29,3.88-2.65,.08-5.26-2.07-5.64-4.5h0Z"/><path class="cls-13" d="M32.95,29.09c.84-1.32,.45-2.75-1.09-3.54-.69-.35-1.68-.54-2.73-.62-2.37-.17-2.71,3.04-2.55,4.17,.16,1.13,.87,2.55,2.18,2.8,.86,.16,3.09-1.12,4.18-2.82h.01Z"/><path d="M40.17,25.9c-1.42-.26-2.66-.14-3.67,.33-.48,.23-.86,.59-1.12,1.02-.64-.39-1.33-.42-1.72-.38-.25-.7-.79-1.28-1.59-1.7-.69-.35-1.67-.58-2.9-.66-.79-.07-1.48,.21-1.99,.76-1.03,1.11-1.13,3.11-1.02,3.92,.2,1.37,1.06,2.88,2.54,3.17,.08,.01,.16,.02,.25,.02,1.23,0,3.37-1.46,4.39-3.04,.33-.51,.49-1.06,.49-1.59,.3-.01,.82,.02,1.24,.36-.05,.3-.07,.62-.02,.95,.41,2.62,3.17,4.88,5.94,4.87h.14c2.2-.07,3.52-2.85,3.71-4.27,.14-1.06-.27-2.95-4.67-3.74h0Zm-7.59,2.94c-1.03,1.63-3.08,2.73-3.72,2.62-1.06-.21-1.68-1.37-1.83-2.43-.1-.71,.02-2.37,.79-3.19,.3-.33,.67-.49,1.13-.49h.15c1.1,.08,1.98,.28,2.56,.58,.65,.33,1.07,.79,1.22,1.34,.13,.5,.03,1.04-.3,1.57Zm8.52,4.17h-.13c-2.36,0-4.71-1.89-5.06-4.13-.12-.79,.26-1.55,.96-1.87,.54-.25,1.18-.38,1.88-.38,.4,0,.82,.04,1.26,.12,1.58,.28,4.18,1.02,3.95,2.75-.16,1.2-1.28,3.45-2.86,3.49h0Z"/></svg>