<?xml version="1.0" encoding="UTF-8"?><svg id="Layer_1" xmlns="http://www.w3.org/2000/svg" xmlns:xlink="http://www.w3.org/1999/xlink" viewBox="0 0 84.46 84.39"><defs><style>.cls-1{fill:none;}.cls-2{clip-path:url(#clippath);}.cls-3{fill:#ffdd2a;}.cls-4{fill:#f25178;}.cls-5{fill:#d0fff7;}.cls-6{clip-path:url(#clippath-1);}.cls-7{clip-path:url(#clippath-2);}.cls-8{isolation:isolate;opacity:.2;}</style><clipPath id="clippath"><rect class="cls-1" x=".04" y=".01" width="84.38" height="84.38"/></clipPath><clipPath id="clippath-1"><rect class="cls-1" x=".04" y=".01" width="84.38" height="84.38"/></clipPath><clipPath id="clippath-2"><rect class="cls-1" x=".04" y=".01" width="84.38" height="84.38"/></clipPath></defs><g class="cls-2"><path class="cls-5" d="M42.31,84.38c23.3,0,42.19-18.89,42.19-42.19S65.61,0,42.31,0,.12,18.89,.12,42.19s18.89,42.19,42.19,42.19Z"/></g><g class="cls-6"><g><path class="cls-4" d="M75.88,67.66c-7.66-1.89-18.01-4.2-21.1-4.89-.73-3.03-1.58-6.97-2.42-11.74-1.75-9.94-1.55-15.03-1.55-15.18,0,0,2.93-1.33,3.98-3.82,.5-1.2,.58-2.28,.34-3.17-.24-.89-.8-1.57-1.59-1.96-1.45-.72-3.45,1.01-3.46,1.03,.01-.15,.8-9.71-7.12-12.87-4.46-1.77-10.59-.53-12.33,7.13-3.26,14.37-2.45,19.74-1.16,21.58,1.56,2.21,7.3,2.99,7.31,3l-1.23,16.01c-3.79,.84-18.75,4.18-25.96,6.13,7.74,9.44,19.49,15.47,32.65,15.47s25.92-6.56,33.63-16.71h0Z"/><path class="cls-8" d="M36.79,46.74s4.44,.58,7.86-2.68v2.81s-3.24,3.42-8.29,5.42l.43-5.55Z"/><path d="M50.43,30.73c-.05,0-.1,0-.15-.03-.21-.08-.32-.33-.23-.54,.52-1.31,1.74-1.61,1.79-1.62,.22-.05,.44,.09,.5,.31,.05,.22-.09,.44-.31,.5-.04,0-.85,.22-1.21,1.12-.06,.16-.22,.26-.39,.26Z"/><path d="M33.94,35.86h-.06s-1.7-.24-2.12-.35c-.19-.05-.28-.2-.28-.2-.09-.14-.11-.31-.06-.46l2.06-6.16c.07-.22,.3-.34,.52-.26,.22,.07,.33,.31,.26,.52l-1.95,5.83,1.68,.26c.23,.03,.38,.25,.35,.47-.03,.21-.21,.35-.41,.35h.01Z"/></g></g><g class="cls-7"><g><path class="cls-3" d="M55.05,62.83c-.27-1.17-.45-3.31-.51-4.35-.03-.52-.45-.93-1.04-.57-2.87,1.73-12.12,3.1-17.27,.73-.36-.17-.82,.28-.84,.87-.02,.7,0,2.19-.17,3.35-4.34,.96-18.65,4.17-25.62,6.06,7.74,9.43,19.48,15.46,32.64,15.46s25.93-6.57,33.64-16.72c-7.49-1.85-17.51-4.09-20.83-4.82h0Z"/><path d="M51.24,65.72h-.03c-.25-.02-.43-.23-.42-.48,0-.02,.16-2.29-.68-3.98-.11-.22-.02-.49,.2-.6s.49-.02,.6,.2c.95,1.92,.78,4.34,.77,4.45-.02,.24-.22,.42-.45,.42h.01Z"/><path d="M38.87,65.93c-.21,0-.4-.15-.44-.37-.02-.08-.37-2.06,.42-3.97,.1-.23,.36-.34,.59-.24,.23,.09,.34,.36,.24,.59-.69,1.66-.37,3.44-.37,3.46,.04,.24-.12,.48-.36,.52h-.08Z"/><path d="M44.86,66.25h-.05c-.25-.03-.43-.25-.4-.5,0-.02,.19-1.81-.14-3.83-.04-.25,.13-.48,.37-.52s.48,.13,.52,.37c.35,2.15,.15,3.99,.15,4.07-.03,.23-.22,.4-.45,.4h0Z"/></g></g><path d="M54.07,20.48c-.21-1.59-.75-3.42-2.01-4.89-4.72-5.52-22.35-4.17-21.78,8.62,0,0,1.54-5.07,3.89-4.13,1.54,.88,2.04,1.39,3.04,1.34,2.59-.13,2.92-1.41,5.8-1.59,1.59-.09,4.45,.57,5.26,5.04,.35,1.94-1,4.72-.3,6.37,.24,.59,1.26,.35,1.44,0,0,0,.02-2.57,1.42-3.75,.64-.54,1.68-.83,2.54-.64,.79-2.59,.89-4.94,.7-6.38Z"/><path d="M33.2,26.79l-1.76-.19c-.23-.03-.42,.14-.45,.36-.02,.22,.14,.42,.36,.45l.72,.08s-.04,.09-.05,.15c-.03,.26,.16,.5,.42,.53,.26,.03,.5-.16,.53-.42,0-.05,0-.1-.01-.15l.15,.02h.04c.2,0,.38-.15,.4-.36,.02-.22-.14-.42-.36-.45v-.02Z"/><path d="M39.89,27.51l-2.14-.23c-.24-.03-.42,.14-.45,.36-.02,.22,.14,.42,.36,.45l1.15,.12s-.04,.08-.04,.13c-.03,.26,.16,.5,.42,.53,.26,.03,.5-.16,.53-.42,0-.05,0-.09-.01-.13h.09s.03,0,.04,0c.2,0,.38-.15,.4-.36,.02-.22-.14-.42-.36-.45h.01Z"/><path d="M37.48,37.61s-.57-.13-.71-.69c-.05-.22-.27-.35-.49-.29-.22,.05-.35,.28-.29,.49,.04,.16,.1,.29,.16,.41-.24,.75-1.17,.73-1.22,.74-.25-.02-.41,.16-.42,.39s.16,.41,.39,.42h.07c.5,0,1.34-.21,1.77-.91,.29,.18,.55,.24,.57,.24h.08c.19,0,.35-.13,.39-.32,.05-.22-.09-.43-.31-.48h.01Z"/></svg>