<?xml version="1.0" encoding="UTF-8"?><svg id="Layer_1" xmlns="http://www.w3.org/2000/svg" xmlns:xlink="http://www.w3.org/1999/xlink" viewBox="0 0 84.42 84.39"><defs><style>.cls-1{fill:none;}.cls-2{clip-path:url(#clippath);}.cls-3{fill:#fff;}.cls-4{fill:#f25178;}.cls-5{fill:#cfffd7;}.cls-6{fill:#0c6fff;}.cls-7{fill:#47d3ff;}.cls-8{clip-path:url(#clippath-1);}.cls-9{clip-path:url(#clippath-2);}.cls-10{isolation:isolate;opacity:.2;}</style><clipPath id="clippath"><rect class="cls-1" x=".02" y="0" width="84.38" height="84.38"/></clipPath><clipPath id="clippath-1"><rect class="cls-1" x=".02" y="0" width="84.38" height="84.38"/></clipPath><clipPath id="clippath-2"><rect class="cls-1" x=".02" y="0" width="84.38" height="84.38"/></clipPath></defs><g class="cls-2"><path class="cls-5" d="M42.25,84.37c23.3,0,42.19-18.89,42.19-42.19S65.55,0,42.25,0,.06,18.88,.06,42.18s18.89,42.19,42.19,42.19Z"/></g><g class="cls-8"><g><path class="cls-4" d="M75.89,67.62c-7.65-1.89-17.97-4.19-21.06-4.88-.73-3.04-1.59-6.96-2.43-11.75-1.78-10.09-1.55-15.19-1.55-15.2,0,0,.11-.05,.28-.14,.75-.4,2.85-1.65,3.71-3.68,1-2.39,.33-4.34-1.24-5.12-.37-.18-.77-.21-1.16-.14-1.18,.19-2.31,1.17-2.31,1.17,0,0,1.39-9.77-6.85-12.21-7.06-2.09-11.44,1.05-13.01,8.52-2.62,12.52-3.56,18.79,1.86,21.92,2.08,1.2,4.7,.59,4.7,.59l-1.24,16.04c-3.82,.85-18.85,4.2-26.02,6.15,7.74,9.45,19.49,15.48,32.66,15.48s25.96-6.58,33.66-16.75Z"/><path class="cls-10" d="M36.84,46.7s4.52-.81,7.86-4.74v3.84s-3.24,4.45-8.29,6.45l.43-5.55Z"/><path d="M50.48,30.68s-.1,0-.15-.03c-.21-.08-.32-.33-.23-.54,.52-1.31,1.74-1.61,1.79-1.62,.22-.05,.44,.09,.5,.31,.05,.22-.09,.44-.31,.5-.04,0-.85,.22-1.21,1.12-.06,.16-.22,.26-.39,.26Z"/><path d="M33.98,35.82h-.06s-1.7-.24-2.12-.35c-.19-.05-.28-.2-.28-.2-.09-.14-.11-.31-.06-.46l2.06-6.16c.07-.22,.3-.34,.52-.26,.22,.07,.33,.31,.26,.52l-1.95,5.83,1.68,.26c.23,.03,.38,.25,.35,.47-.03,.21-.21,.35-.41,.35h0Z"/></g></g><g class="cls-9"><g><path class="cls-7" d="M41.15,71.55c-1.11,0-6.76-5.75-7.65-8.32-5.6,1.25-17.69,3.99-23.91,5.68,7.74,9.43,19.48,15.46,32.64,15.46s25.93-6.57,33.64-16.72c-6.38-1.58-14.59-3.43-18.94-4.4-.84-.13-1.62-.25-2.34-.36-3.8,2.89-11.23,8.67-13.44,8.67h0Z"/><path class="cls-6" d="M54.51,61.49l-13.36,10.05,4.62,4.47c.52,.47,1.32,.41,1.77-.13l11.01-12.38-4.03-2.01h0Z"/><path class="cls-6" d="M35.61,61.87l5.54,9.67-6.9,3.15c-.78,.59-1.9,.08-1.96-.89l-1.08-10.15,4.4-1.78Z"/><path class="cls-3" d="M40.29,76.43c.47,0,.86-.38,.86-.85s-.39-.85-.86-.85-.86,.38-.86,.85,.39,.85,.86,.85Z"/><path class="cls-3" d="M39.82,81.01c.48,0,.86-.38,.86-.85s-.38-.85-.86-.85-.86,.38-.86,.85,.39,.85,.86,.85Z"/></g></g><path d="M54.56,18.76s-.01-.08-.02-.12c0-.03-.02-.07-.04-.1-.04-.14-.07-.28-.11-.4-.05-.14-.09-.27-.15-.39,0-.02-.01-.03-.02-.06-1.26-2.81-4.48-1.93-4.48-1.93,0,0-.8-2.38-4.15-3.18-3.74-.89-5.55,.55-5.55,.55,0,0-3.16-1.55-6.17,1.21-1.11,1.02-2.1,2.45-2.3,3.77-.68,.97-1.51,2.77-1.17,5.46,.32-.96,.53-2.13,1.39-3.9,.14,.27,.32,.51,.58,.73,1.57,1.34,4.23,1.39,5.52,.62,0,0,.5,1.78,3.05,1.99,2.26,.18,3-.97,3-.97,0,0,.73,2.19,3.7,2.03-.21,1.89-1.42,4.39-.33,6.64,.51,1.05,1.35,1.15,1.56,.73,0,0,.02-2.82,1.99-4.09,.8-.51,1.84-.6,2.52-.55l.46-1.51c.89-2.92,1.02-5.04,.71-6.51h0Z"/><path d="M38.93,28.89c-.08,0-.16,0-.24-.02-.29-.05-.7-.23-1.03-.78-.12-.19-.05-.44,.14-.56,.19-.12,.44-.05,.56,.14,.14,.23,.3,.37,.48,.4,.27,.05,.57-.13,.66-.2,.18-.14,.43-.11,.57,.07,.14,.17,.11,.43-.06,.57-.05,.04-.5,.39-1.06,.39h-.02Z"/><path d="M32.38,28.03c-.09,0-.18,0-.27-.02-.72-.13-1.15-.73-1.19-.79-.13-.18-.08-.44,.11-.56,.18-.12,.44-.08,.56,.1,0,0,.28,.39,.67,.45,.23,.04,.45-.03,.7-.21,.18-.13,.43-.09,.56,.09,.13,.18,.09,.44-.09,.57-.34,.25-.7,.37-1.05,.37Z"/><path d="M34.89,38.73c-.21,0-.38-.16-.4-.37-.02-.22,.14-.42,.37-.44,.01,0,1.25-.13,1.76-1.1,.11-.2,.35-.27,.55-.17,.2,.1,.28,.35,.17,.55-.71,1.36-2.33,1.52-2.4,1.53h-.05Z"/></svg>