<?xml version="1.0" encoding="UTF-8"?><svg id="Layer_1" xmlns="http://www.w3.org/2000/svg" xmlns:xlink="http://www.w3.org/1999/xlink" viewBox="0 0 84.42 84.39"><defs><style>.cls-1{fill:none;}.cls-2{clip-path:url(#clippath);}.cls-3{fill:#0056d3;}.cls-4{fill:#fff;}.cls-5{fill:#f25178;}.cls-6{fill:#c5e2ff;}.cls-7{fill:#d6ccff;}.cls-8{clip-path:url(#clippath-1);}.cls-9{clip-path:url(#clippath-2);}.cls-10{opacity:.95;}.cls-10,.cls-11{isolation:isolate;}.cls-11{opacity:.2;}</style><clipPath id="clippath"><rect class="cls-1" x=".02" y="0" width="84.38" height="84.38"/></clipPath><clipPath id="clippath-1"><rect class="cls-1" x=".02" y="0" width="84.38" height="84.38"/></clipPath><clipPath id="clippath-2"><rect class="cls-1" x=".02" y="0" width="84.38" height="84.38"/></clipPath></defs><g class="cls-2"><path class="cls-7" d="M42.25,84.38c23.3,0,42.19-18.89,42.19-42.19S65.55,0,42.25,0,.06,18.88,.06,42.19s18.89,42.19,42.19,42.19Z"/></g><g class="cls-8"><g><path class="cls-5" d="M75.9,67.64c-7.65-1.89-17.97-4.19-21.05-4.88-.73-3.04-1.58-6.98-2.42-11.75-1.78-10.09-1.55-15.2-1.55-15.2,0,0,2.93-1.33,3.98-3.82,1-2.39,.33-4.34-1.24-5.12-1.46-.72-3.47,1.03-3.47,1.03,0,0,1.36-9.17-4.95-12.44-3.11-1.62-12.04-3.22-13.9,4.22-3.58,14.29-4.92,25.69-.8,27.68,2.31,1.12,6.36-.64,6.36-.64l-1.23,16.04c-3.81,.84-18.81,4.19-26,6.15,7.74,9.43,19.48,15.46,32.64,15.46s25.93-6.57,33.64-16.72h-.01Z"/><path class="cls-11" d="M36.86,46.73s4.44-1.48,7.86-4.74v3.84s-3.24,4.45-8.29,6.45l.43-5.55Z"/><path d="M50.5,30.71c-.05,0-.1,0-.15-.03-.21-.08-.32-.33-.23-.54,.52-1.31,1.74-1.61,1.79-1.62,.22-.05,.44,.09,.5,.31,.05,.22-.09,.44-.31,.5-.04,0-.85,.22-1.21,1.12-.06,.16-.22,.26-.39,.26Z"/><path d="M34.01,35.85h-.06s-1.7-.24-2.12-.35c-.19-.05-.28-.2-.28-.2-.09-.14-.11-.31-.06-.46l2.06-6.16c.07-.22,.3-.34,.52-.26,.22,.07,.33,.31,.26,.52l-1.95,5.83,1.68,.26c.23,.03,.38,.25,.35,.47-.03,.21-.21,.35-.41,.35h0Z"/></g></g><g class="cls-9"><g><path class="cls-4" d="M56.36,63.11c-.57-.09-1.14-.18-1.7-.26-3.8,2.89-11.23,8.67-13.44,8.67-1.11,0-6.72-5.72-7.64-8.3-5.58,1.25-17.72,4-23.97,5.69,7.74,9.43,19.23,15.4,32.64,15.46,13.41,.06,25.97-6.52,33.64-16.72-6.68-1.65-15.38-3.61-19.54-4.54h.01Z"/><path class="cls-6" d="M54.53,61.46l-13.31,10.05,4.62,4.47c.52,.47,1.32,.41,1.77-.13l11.01-12.38-4.08-2.01h0Z"/><path class="cls-6" d="M35.68,61.84l5.54,9.67-6.9,3.15c-.78,.59-1.9,.08-1.96-.89l-1.08-10.15,4.4-1.78Z"/><path class="cls-3" d="M36.59,73.63s2.94,3.82,3.61,4.29c.67,.47,4.3-3.22,4.3-3.22l-3.29-3.18-4.63,2.11h.01Z"/><path class="cls-3" d="M36.4,83.95c1.92,.27,3.87,.42,5.86,.42h.04l-.32-8.52-2.99,.08-2.59,8.03h0Z"/><path d="M51.88,81.99c.02,.24,.21,.42,.45,.42h.03l3.24-.22c1-.33,1.98-.7,2.94-1.1l-6.24,.42c-.25,.02-.44,.23-.42,.48Z"/></g></g><path d="M51.07,16.12s-.54-1.62-2.8-2.41c-5.59-1.96-10.65-1.05-13.21-.2-1.18,.39-2.91,2.24-3.21,4.2-.56,.55-2.16,2.5-1.52,5.9,.36-1.04,.61-2.25,1.66-4.29,.26,.61,.6,1.29,1.41,1.87,3.67,2.66,10.58,2.33,14.37,1.43,0,0-1.42,4.85-.35,8.16,.17,.97,1.18,1.1,1.39,.68,0,0,.24-2.71,2.22-3.99,.8-.51,1.62-.7,2.3-.66l.46-1.51c2.26-7.4-.37-9.68-2.71-9.18h0Z"/><path d="M32.19,27.93c.25-.25,.24-.65,0-.89-.25-.25-.64-.25-.89,0s-.25,.65,0,.89c.25,.25,.64,.25,.89,0Z"/><path d="M37.98,28.76c.25-.25,.25-.65,0-.89-.25-.25-.64-.25-.89,0-.25,.25-.25,.65,0,.89,.25,.25,.65,.25,.89,0Z"/><path d="M34.89,38.79c-.08,0-.16-.02-.23-.07-.18-.13-.23-.38-.11-.56,.84-1.23,2.27-.99,2.9-.68,.2,.09,.29,.33,.19,.54-.09,.2-.33,.29-.54,.2-.05-.02-1.23-.55-1.89,.41-.08,.12-.21,.18-.33,.18v-.02Z"/><path class="cls-10" d="M31.23,25.84s-1.78-.28-2.52,.2c-.74,.48-.18,2.44,1.29,3.56,.96,.73,2.88,.64,3.83-.99,.95-1.62-.89-2.54-2.61-2.78h0Z"/><path class="cls-10" d="M40.25,27.27s1.99,.27,2.62,.97c.63,.7-.57,2.44-2.48,3.07-1.25,.42-3.27-.28-3.77-2.15-.5-1.87,1.74-2.2,3.64-1.9h-.01Z"/><path d="M48.76,28.47l-3.85-.67c-.02-.07-.05-.12-.1-.16-.86-.76-4.04-1.24-6.91-.88-.41,.05-.84,.08-1.21,.09-.77,.02-1.55-.12-2.25-.42-.27-.12-.59-.26-.98-.46-2.38-1.13-5.26-1.56-6.21-1.07-.95,.5,1.4,5.13,3.28,5.82,1.87,.71,3.36-.91,4.05-2.11,.22-.37,.44-.9,.72-.88,.34,.02,.47,.64,.62,1.22,.36,1.35,1.44,3.35,3.65,3.25,1.5-.07,3.8-1.81,4.83-3.15l4,.43,.36-1.01Zm-14.93,.14c-.94,1.61-2.83,1.71-3.78,.98-1.45-1.11-1.99-3.06-1.27-3.54,.73-.48,2.48-.2,2.48-.2,1.69,.24,3.49,1.15,2.57,2.76h0Zm6.55,2.63c-1.23,.41-3.21-.27-3.7-2.09-.5-1.82,1.71-2.14,3.57-1.85,0,0,1.95,.26,2.57,.95,.62,.69-.55,2.37-2.43,2.99h-.01Z"/></svg>