<?xml version="1.0" encoding="UTF-8"?><svg id="Layer_1" xmlns="http://www.w3.org/2000/svg" xmlns:xlink="http://www.w3.org/1999/xlink" viewBox="0 0 84.42 84.39"><defs><style>.cls-1{fill:none;}.cls-2{clip-path:url(#clippath);}.cls-3{fill:#ad1f59;}.cls-4{fill:#d6ccff;}.cls-5{fill:#19ecc9;}.cls-6{clip-path:url(#clippath-1);}.cls-7{clip-path:url(#clippath-2);}.cls-8{opacity:.95;}.cls-8,.cls-9{isolation:isolate;}.cls-9{opacity:.2;}</style><clipPath id="clippath"><rect class="cls-1" y=".01" width="84.38" height="84.38"/></clipPath><clipPath id="clippath-1"><rect class="cls-1" y=".01" width="84.38" height="84.38"/></clipPath><clipPath id="clippath-2"><rect class="cls-1" y=".01" width="84.38" height="84.38"/></clipPath></defs><g class="cls-2"><path class="cls-4" d="M42.23,84.38c23.3,0,42.19-18.89,42.19-42.19S65.53,0,42.23,0,.04,18.89,.04,42.19s18.89,42.19,42.19,42.19Z"/></g><g class="cls-6"><g><path class="cls-3" d="M75.87,67.63c-7.65-1.89-17.97-4.19-21.06-4.88-.73-3.04-1.59-6.96-2.43-11.75-1.78-10.09-1.55-15.19-1.55-15.2,0,0,.11-.05,.28-.14,.75-.4,2.85-1.65,3.71-3.68,1-2.39,.33-4.34-1.24-5.12-.37-.18-.77-.21-1.16-.14-1.18,.19-2.31,1.17-2.31,1.17,0,0,1.39-9.77-6.85-12.21-7.06-2.09-11.44,1.05-13.01,8.52-2.62,12.52-3.56,18.79,1.86,21.92,2.08,1.2,4.7,.59,4.7,.59l-1.24,16.04c-3.82,.85-18.85,4.2-26.02,6.15,7.74,9.45,19.49,15.48,32.66,15.48s25.96-6.58,33.66-16.75Z"/><path class="cls-9" d="M36.82,46.71s4.52-.81,7.86-4.74v3.84s-3.24,4.45-8.29,6.45l.43-5.55Z"/><path d="M50.46,30.69s-.1,0-.15-.03c-.21-.08-.32-.33-.23-.54,.52-1.31,1.74-1.61,1.79-1.62,.22-.05,.44,.09,.5,.31,.05,.22-.09,.44-.31,.5-.04,0-.85,.22-1.21,1.12-.06,.16-.22,.26-.39,.26Z"/><path d="M33.96,35.83h-.06s-1.7-.24-2.12-.35c-.19-.05-.28-.2-.28-.2-.09-.14-.11-.31-.06-.46l2.06-6.16c.07-.22,.3-.34,.52-.26,.22,.07,.33,.31,.26,.52l-1.95,5.83,1.68,.26c.23,.03,.38,.25,.35,.47-.03,.21-.21,.35-.41,.35h.01Z"/></g></g><g class="cls-7"><g><path class="cls-5" d="M66.61,65.46c3.54-2.46,5.9-10.3,1.36-14.25-3.57-3.1-9.48-1.72-15.49,.54l1.67,11.12c-10.02,2.24-13.17,5.95-14.8,5.65-2.46-.45-3.46-7.3-3.46-7.3l.23-5.89c-1.45-.08-2.66,.18-3.74,.39-.88,.17-1.76,.4-2.57,.79-4.02,1.9-3.65,6.11-3.05,8.24-5.82,1.33-12.91,3-17.21,4.17,7.74,9.43,19.48,15.46,32.64,15.46s25.93-6.57,33.64-16.72c-2.87-.71-6.12-1.48-9.22-2.19h0Z"/><path d="M66.21,64.81c-11.9-2.01-20.32,2.93-25.35,5.88l-.09,.05-.02-.22c-.02-.22-.2-.38-.43-.36-.22,.02-.38,.21-.36,.43l.05,.6-.13,.07c-.73,.42-1.6,.27-2.22-.36l.17-.98c.04-.22-.11-.42-.33-.46-.23-.04-.42,.11-.46,.33l-.06,.34c-4.33-5.02-9.55-5.8-9.78-5.83-.21-.03-.42,.12-.45,.34-.03,.22,.12,.42,.34,.45,.06,0,5.51,.82,9.72,6.06l-.85,4.91c-.04,.22,.11,.42,.33,.46h.07c.19,0,.36-.14,.39-.33l.76-4.39c.46,.32,.98,.5,1.5,.5,.36,0,.73-.1,1.07-.26l.52,5.99c.02,.21,.19,.37,.4,.37h.03c.22-.02,.38-.21,.36-.43l-.55-6.33,.42-.24c4.94-2.9,13.2-7.75,24.82-5.78,.23,.04,.42-.11,.46-.33s-.11-.42-.33-.46v-.02Z"/><path d="M54.78,62.77c.08,0,.17-.02,.24-.08,.03-.02,3.32-2.39,7.73-2.39h.11c.22,0,.4-.18,.4-.4s-.18-.4-.4-.4c-4.71-.06-8.18,2.43-8.32,2.54-.18,.13-.22,.38-.09,.56,.08,.11,.2,.16,.32,.16h.01Z"/><path d="M34.85,61.9c.07,.16,.24,.25,.41,.23,.04,0,.08-.01,.12-.04,.2-.09,.29-.33,.2-.53-.04-.07-.92-1.98-3.22-3.39-.19-.12-.43-.05-.55,.13-.12,.19-.05,.43,.13,.55,2.09,1.28,2.9,3.02,2.9,3.04h0Z"/></g></g><path d="M53.93,24c.57-1.27,.32-2.19-.27-2.78,1.19-2.15-1.11-2.76-1.11-2.76,1.07-2.04-1.27-2.6-1.27-2.6,.51-2.67-2.58-2.29-2.58-2.29-.91-2.4-3.82-1.26-3.82-1.26-2.16-2.65-4.72,.07-4.72,.07-2.63-1.29-3.8,1.45-3.8,1.45-2.7-.22-3.05,2.38-3.05,2.38,0,0-1.22,.31-1.85,1.49-.27,.51-.33,1.07-.35,1.52-.98,.97-2.22,2.77-.89,5.01,.22-.65,.34-1.35,.89-2.24,.43,1.04,1.81,.74,1.81,.74,1.67,2.32,4.18,.37,4.18,.37,2.37,1.57,3.97-.45,3.97-.45,2.43,1.43,3.92-.38,3.92-.38-.64,2.72,2.21,2.99,2.21,2.99-.52,1.29-.55,2.2,.53,3.11,.03,.77,.13,1.48,.35,1.99,.38,.88,1.11,.76,1.3,.41,0,0,.21-2.26,1.85-3.31,.66-.43,1.46-.72,2.49-.39,0,0,.43-.24,.6-.9,.39-1.5-.38-2.18-.38-2.18h-.01Z"/><path d="M32.17,27.94c.25-.25,.25-.65,0-.89-.25-.25-.65-.25-.89,0-.25,.25-.25,.64,0,.89,.25,.25,.65,.24,.89,0Z"/><path d="M37.97,28.77c.25-.25,.25-.65,0-.89-.25-.25-.65-.25-.89,0-.25,.25-.25,.65,0,.89,.25,.25,.65,.25,.89,0Z"/><path d="M35.89,39.61c-.07,0-.14,0-.21-.02-.19-.04-.46-.17-.64-.52-.14-.28-.11-.54,0-.77-.12-.05-.24-.11-.34-.2-.15-.14-.23-.32-.23-.53,0-.26,.09-.49,.26-.66,.3-.29,.71-.29,.79-.29,.22,0,.4,.19,.39,.42,0,.22-.17,.37-.38,.37-.08,0-.23,0-.23,.08,.01,.13,.33,.11,.54,.13,.23,.03,.35,.07,.41,.25,.06,.18-.02,.33-.18,.44-.25,.17-.29,.31-.29,.37,0,.09,.08,.11,.09,.11,.18,.04,.37-.11,.51-.23,.18-.14,.43-.11,.57,.06s.11,.43-.06,.57c-.09,.07-.53,.41-1.01,.41h0Z"/><path class="cls-8" d="M31.21,25.85s-1.78-.29-2.52,.2c-.74,.48-.18,2.44,1.29,3.56,.96,.73,2.88,.64,3.83-.99,.95-1.62-.89-2.54-2.61-2.78h0Z"/><path class="cls-8" d="M40.23,27.28s1.99,.27,2.62,.97c.63,.7-.57,2.44-2.48,3.07-1.25,.42-3.27-.28-3.77-2.15-.5-1.87,1.74-2.2,3.64-1.9h-.01Z"/><path d="M48.74,28.48l-3.85-.67c-.02-.07-.05-.12-.1-.16-.86-.76-4.04-1.24-6.91-.88-.41,.05-.84,.08-1.21,.09-.77,.02-1.55-.12-2.25-.43-.27-.12-.59-.26-.98-.46-2.38-1.13-5.26-1.56-6.21-1.07-.95,.5,1.4,5.13,3.28,5.82,1.87,.71,3.36-.91,4.05-2.11,.22-.37,.44-.9,.72-.88,.34,.02,.47,.64,.62,1.22,.36,1.35,1.44,3.35,3.65,3.26,1.5-.07,3.8-1.81,4.83-3.15l4,.43,.36-1.01Zm-14.93,.14c-.94,1.61-2.83,1.71-3.78,.98-1.45-1.11-1.99-3.06-1.27-3.54,.73-.48,2.48-.2,2.48-.2,1.69,.24,3.49,1.15,2.57,2.76h0Zm6.55,2.63c-1.23,.41-3.21-.27-3.7-2.09-.5-1.82,1.71-2.15,3.57-1.85,0,0,1.95,.26,2.57,.95,.62,.69-.56,2.37-2.43,2.99h-.01Z"/></svg>