<?xml version="1.0" encoding="UTF-8"?><svg id="Layer_1" xmlns="http://www.w3.org/2000/svg" xmlns:xlink="http://www.w3.org/1999/xlink" viewBox="0 0 84.42 84.39"><defs><style>.cls-1{fill:none;}.cls-2{clip-path:url(#clippath);}.cls-3{fill:#ff9fb6;}.cls-4{fill:#cfffd7;}.cls-5{fill:#47d3ff;}.cls-6{clip-path:url(#clippath-1);}.cls-7{clip-path:url(#clippath-2);}.cls-8{isolation:isolate;opacity:.2;}</style><clipPath id="clippath"><rect class="cls-1" y=".01" width="84.38" height="84.38"/></clipPath><clipPath id="clippath-1"><rect class="cls-1" y=".01" width="84.38" height="84.38"/></clipPath><clipPath id="clippath-2"><rect class="cls-1" y=".01" width="84.38" height="84.38"/></clipPath></defs><g class="cls-2"><path class="cls-4" d="M42.23,84.38c23.3,0,42.19-18.89,42.19-42.19S65.53,0,42.23,0,.04,18.89,.04,42.19s18.89,42.19,42.19,42.19Z"/></g><g class="cls-6"><g><path class="cls-3" d="M75.88,67.65c-7.65-1.89-17.97-4.19-21.05-4.88-.73-3.04-1.58-6.98-2.42-11.75-1.78-10.09-1.55-15.2-1.55-15.2,0,0,2.93-1.33,3.98-3.82,1-2.39,.33-4.34-1.24-5.12-1.46-.72-3.47,1.03-3.47,1.03,0,0,1.36-9.17-4.95-12.44-3.11-1.62-12.04-3.22-13.9,4.22-3.58,14.29-4.92,25.69-.8,27.68,2.31,1.12,6.36-.64,6.36-.64l-1.23,16.04c-3.81,.84-18.81,4.19-26,6.15,7.74,9.43,19.48,15.46,32.64,15.46s25.93-6.57,33.64-16.72h0Z"/><path class="cls-8" d="M36.84,46.73s4.44-1.48,7.86-4.74v3.84s-3.24,4.45-8.29,6.45l.43-5.55Z"/><path d="M50.48,30.71c-.05,0-.1,0-.15-.03-.21-.08-.32-.33-.23-.54,.52-1.31,1.74-1.61,1.79-1.62,.22-.05,.44,.09,.5,.31,.05,.22-.09,.44-.31,.5-.04,0-.85,.22-1.21,1.12-.06,.16-.22,.26-.39,.26Z"/><path d="M33.99,35.85h-.06s-1.7-.24-2.12-.35c-.19-.05-.28-.2-.28-.2-.09-.14-.11-.31-.06-.46l2.06-6.16c.07-.22,.3-.34,.52-.26,.22,.07,.33,.31,.26,.52l-1.95,5.83,1.68,.26c.23,.03,.38,.25,.35,.47-.03,.21-.21,.35-.41,.35h0Z"/></g></g><g class="cls-7"><path class="cls-5" d="M75.86,67.65c-7.65-1.89-17.97-4.19-21.05-4.88,0-.03-.02-.07-.02-.1-1.62,1.19-9.68,6.78-17.15,5.89-5.3-.64-3.28-4.42-2.43-5.71-4.34,.97-18.65,4.18-25.62,6.07,7.74,9.43,19.48,15.46,32.64,15.46s25.93-6.57,33.64-16.72h0Z"/></g><path d="M51.05,16.12s-.54-1.62-2.8-2.41c-5.59-1.96-10.65-1.05-13.21-.2-1.18,.39-2.91,2.24-3.21,4.2-.56,.56-2.16,2.5-1.52,5.9,.36-1.04,.61-2.25,1.66-4.29,.26,.61,.6,1.29,1.41,1.87,3.67,2.66,10.58,2.33,14.37,1.43,0,0-1.42,4.85-.35,8.16,.17,.97,1.18,1.1,1.39,.68,0,0,.24-2.72,2.22-3.99,.8-.51,1.62-.71,2.3-.66l.46-1.51c2.26-7.4-.37-9.68-2.71-9.18h0Z"/><path d="M33.16,26.79l-1.76-.19c-.23-.03-.42,.14-.45,.36-.02,.22,.14,.42,.36,.45l.72,.08s-.04,.09-.05,.15c-.03,.26,.16,.5,.42,.53s.5-.16,.53-.42c0-.05,0-.1,0-.15l.15,.02h.04c.2,0,.38-.15,.4-.36,.02-.22-.14-.42-.36-.45v-.02Z"/><path d="M39.85,27.51l-2.14-.23c-.24-.03-.42,.14-.45,.36-.02,.22,.14,.42,.36,.45l1.15,.12s-.04,.08-.04,.13c-.03,.26,.16,.5,.42,.53s.5-.16,.53-.42c0-.05,0-.09,0-.13h.09s.03,0,.04,0c.2,0,.38-.15,.4-.36,.02-.22-.14-.42-.36-.45h0Z"/><path d="M37.44,37.61s-.57-.13-.71-.69c-.05-.22-.27-.35-.49-.29-.22,.05-.35,.28-.29,.49,.04,.16,.1,.29,.16,.41-.24,.75-1.17,.73-1.22,.74-.25-.02-.41,.16-.42,.39,0,.23,.16,.41,.39,.42h.07c.5,0,1.34-.21,1.77-.91,.29,.18,.55,.24,.57,.24h.08c.19,0,.35-.13,.39-.32,.05-.22-.09-.43-.31-.48h.01Z"/></svg>