<?xml version="1.0" encoding="UTF-8"?><svg id="Layer_1" xmlns="http://www.w3.org/2000/svg" xmlns:xlink="http://www.w3.org/1999/xlink" viewBox="0 0 84.46 84.39"><defs><style>.cls-1{fill:none;}.cls-2{clip-path:url(#clippath);}.cls-3{fill:#fff;}.cls-4{fill:#ffe8d8;}.cls-5{fill:#ff0e0e;}.cls-6{fill:#f25178;}.cls-7{fill:#dd2c52;}.cls-8{fill:#df0505;}.cls-9{fill:#19ecc9;}.cls-10{clip-path:url(#clippath-1);}.cls-11{clip-path:url(#clippath-2);}.cls-12{opacity:.34;}.cls-13{opacity:.31;}.cls-14{isolation:isolate;opacity:.2;}</style><clipPath id="clippath"><rect class="cls-1" x=".04" y=".01" width="84.38" height="84.38"/></clipPath><clipPath id="clippath-1"><rect class="cls-1" x=".04" y=".01" width="84.38" height="84.38"/></clipPath><clipPath id="clippath-2"><rect class="cls-1" x=".04" y=".01" width="84.38" height="84.38"/></clipPath></defs><g class="cls-2"><path class="cls-4" d="M42.31,84.38c23.3,0,42.19-18.89,42.19-42.19S65.61,0,42.31,0,.12,18.89,.12,42.19s18.89,42.19,42.19,42.19Z"/></g><g class="cls-10"><g><path class="cls-6" d="M75.88,67.66c-7.66-1.89-18.01-4.2-21.1-4.89-.73-3.03-1.58-6.97-2.42-11.74-1.75-9.94-1.55-15.03-1.55-15.18,0,0,2.93-1.33,3.98-3.82,.5-1.2,.58-2.28,.34-3.17-.24-.89-.8-1.57-1.59-1.96-1.45-.72-3.45,1.01-3.46,1.03,.01-.15,.8-9.71-7.12-12.87-4.46-1.77-10.59-.53-12.33,7.13-3.26,14.37-2.45,19.74-1.16,21.58,1.56,2.21,7.3,2.99,7.31,3l-1.23,16.01c-3.79,.84-18.75,4.18-25.96,6.13,7.74,9.44,19.49,15.47,32.65,15.47s25.92-6.56,33.63-16.71h0Z"/><path class="cls-14" d="M36.79,46.74s4.44,.58,7.86-2.68v2.81s-3.24,3.42-8.29,5.42l.43-5.55Z"/><path d="M50.43,30.73c-.05,0-.1,0-.15-.03-.21-.08-.32-.33-.23-.54,.52-1.31,1.74-1.61,1.79-1.62,.22-.05,.44,.09,.5,.31,.05,.22-.09,.44-.31,.5-.04,0-.85,.22-1.21,1.12-.06,.16-.22,.26-.39,.26Z"/><path d="M33.94,35.86h-.06s-1.7-.24-2.12-.35c-.19-.05-.28-.2-.28-.2-.09-.14-.11-.31-.06-.46l2.06-6.16c.07-.22,.3-.34,.52-.26,.22,.07,.33,.31,.26,.52l-1.95,5.83,1.68,.26c.23,.03,.38,.25,.35,.47-.03,.21-.21,.35-.41,.35h.01Z"/></g></g><g class="cls-11"><g><path class="cls-9" d="M66.65,65.46c3.54-2.46,5.9-10.3,1.36-14.25-3.57-3.1-9.48-1.72-15.49,.54l1.67,11.12c-10.02,2.24-13.17,5.95-14.8,5.65-2.46-.45-3.46-7.3-3.46-7.3l.23-5.89c-1.45-.08-2.66,.18-3.74,.39-.88,.17-1.76,.4-2.57,.79-4.02,1.9-3.65,6.11-3.05,8.24-5.82,1.33-12.91,3-17.21,4.17,7.74,9.43,19.48,15.46,32.64,15.46s25.93-6.57,33.64-16.72c-2.87-.71-6.12-1.48-9.22-2.19h0Z"/><path d="M66.25,64.81c-11.9-2.01-20.32,2.93-25.35,5.88l-.09,.05-.02-.22c-.02-.22-.2-.38-.43-.36-.22,.02-.38,.21-.36,.43l.05,.6-.13,.07c-.73,.42-1.6,.27-2.22-.36l.17-.98c.04-.22-.11-.42-.33-.46-.23-.04-.42,.11-.46,.33l-.06,.34c-4.33-5.02-9.55-5.8-9.78-5.83-.21-.03-.42,.12-.45,.34-.03,.22,.12,.42,.34,.45,.06,0,5.51,.82,9.72,6.06l-.85,4.91c-.04,.22,.11,.42,.33,.46h.07c.19,0,.36-.14,.39-.33l.76-4.39c.46,.32,.98,.5,1.5,.5,.36,0,.73-.1,1.07-.26l.52,5.99c.02,.21,.19,.37,.4,.37h.03c.22-.02,.38-.21,.36-.43l-.55-6.33,.42-.24c4.94-2.9,13.2-7.75,24.82-5.78,.23,.04,.42-.11,.46-.33s-.11-.42-.33-.46v-.02Z"/><path d="M54.82,62.77c.08,0,.17-.02,.24-.08,.03-.02,3.32-2.39,7.73-2.39h.11c.22,0,.4-.18,.4-.4s-.18-.4-.4-.4c-4.71-.06-8.18,2.43-8.32,2.54-.18,.13-.22,.38-.09,.56,.08,.11,.2,.16,.32,.16h0Z"/><path d="M34.9,61.9c.07,.16,.24,.25,.41,.23,.04,0,.08-.01,.12-.04,.2-.09,.29-.33,.2-.53-.04-.07-.92-1.98-3.22-3.39-.19-.12-.43-.05-.55,.13-.12,.19-.05,.43,.13,.55,2.09,1.28,2.9,3.02,2.9,3.04h0Z"/></g></g><path d="M51.09,16.12s-.54-1.62-2.8-2.41c-5.59-1.96-10.65-1.05-13.21-.2-1.18,.39-2.91,2.24-3.21,4.2-.56,.56-2.16,2.5-1.53,5.9,.36-1.04,.61-2.25,1.66-4.29,.26,.61,.6,1.29,1.41,1.87,3.67,2.66,10.58,2.33,14.37,1.43,0,0-1.42,4.85-.35,8.16,.17,.97,1.18,1.1,1.39,.68,0,0,.24-2.72,2.22-3.99,.8-.51,1.62-.71,2.3-.66l.46-1.51c2.26-7.4-.37-9.68-2.71-9.18h0Z"/><path d="M32.21,27.94c.25-.25,.25-.65,0-.89s-.65-.25-.89,0c-.25,.25-.24,.64,0,.89,.25,.25,.65,.24,.89,0Z"/><path d="M38.01,28.77c.25-.25,.25-.65,0-.89-.25-.25-.64-.25-.89,0-.25,.25-.25,.65,0,.89,.25,.25,.65,.25,.89,0Z"/><path class="cls-7" d="M34.9,37.94s1.59,0,3.74-.8c.03-.01,.07-.02,.08,.02,.14,.4,.33,1.45-.69,1.96-1.27,.64-2.69,.1-3.02-1.16"/><path class="cls-3" d="M38.54,38.02s-.95,.67-2.92,.59l-.41-.5,3.6-.84-.27,.75Z"/><path d="M37.02,39.78c-.45,0-.92-.11-1.31-.32-.48-.26-.84-.66-1.03-1.15h-.24c-.22,0-.4-.18-.4-.41s.18-.4,.41-.4c0,0,2.17,0,4.05-.73,.22-.09,.47,0,.58,.21l.02,.03c.14,.4,.2,1.06-.08,1.63-.24,.48-.67,.83-1.28,1.03-.22,.07-.47,.11-.72,.11Zm-1.46-1.53c.13,.2,.31,.37,.54,.49,.49,.26,1.05,.27,1.39,.16,.39-.13,.66-.33,.8-.61,.1-.21,.12-.43,.11-.62-1.03,.35-2.08,.51-2.84,.59h0Z"/><path class="cls-5" d="M30.55,19.05s3.74-7.93,9.48-10.63c5.82-2.73,9.37-1.91,11.56-.83,1.85,.91,4.27,5.14,4.92,9.03,.45,2.68,.48,8.04-.46,9.61-.83,1.38-25.51-7.18-25.51-7.18Z"/><g class="cls-13"><path d="M36.24,19.81s-.09,0-.14-.02c-.23-.07-.34-.32-.27-.54,2.98-9.15,9.58-11.72,13.25-12.43,.24-.05,.46,.1,.51,.35,.05,.24-.1,.46-.35,.5-4.25,.83-9.89,3.56-12.6,11.86-.06,.18-.23,.3-.41,.3h.01Z"/></g><g class="cls-13"><path d="M51.35,24.3s-.1,0-.16-.04c-.22-.08-.33-.33-.24-.56,2.25-5.79,2.12-10.79,1.63-13.97-.04-.23,.13-.46,.36-.49,.24-.03,.46,.13,.49,.36,.52,3.28,.63,8.45-1.68,14.41-.07,.17-.23,.28-.4,.28v.02Z"/></g><g class="cls-13"><path d="M44.87,21.08h-.07c-.24-.03-.39-.25-.36-.49,1-6.36,4.37-10.74,6.29-12.78,.16-.17,.44-.18,.61-.02,.17,.16,.18,.44,.02,.61-1.86,1.97-5.11,6.19-6.07,12.32-.03,.22-.22,.37-.42,.37Z"/></g><path class="cls-8" d="M30.01,22.78c2.91,.15,12.29,1.1,24.89,7.07,.48,.23,1.21,.09,1.42-.4,.37-.86,.83-2.23,.4-3.74-.07-.24-.36-.47-.56-.6-2-1.19-12.35-7.24-25.32-6.71-.34,.01-.8,.32-1,.62-.64,.93-.72,1.62-.64,2.73,.04,.48,.33,1,.8,1.02Z"/><g class="cls-12"><path d="M31.41,22.76c-.24,0-.43-.21-.43-.44,.06-2.86,1.26-3.82,1.32-3.86,.2-.15,.46-.11,.61,.08,.14,.18,.11,.46-.07,.6-.02,.02-.94,.83-.99,3.2,0,.23-.2,.43-.44,.43h-.01Z"/></g><g class="cls-12"><path d="M53.19,28.81s-.1,0-.15-.02c-.22-.08-.33-.33-.24-.55,.9-2.32,.55-3.68,.54-3.7-.06-.23,.07-.47,.3-.53,.23-.07,.46,.07,.53,.3,.02,.07,.44,1.62-.57,4.24-.07,.17-.23,.28-.4,.28h0Z"/></g><g class="cls-12"><path d="M41.82,24.59h-.03c-.24-.02-.41-.23-.39-.46,.23-2.77,1.11-4.13,1.15-4.19,.13-.2,.4-.25,.6-.13,.2,.13,.25,.4,.13,.6,0,.01-.8,1.26-1.01,3.78-.02,.23-.21,.39-.42,.39h-.01Z"/></g><path d="M47.81,28.67l-5.35-.04c-.11-.55-.33-1.09-.69-1.54-.6-.76-1.45-1.24-2.42-1.36-1.71-.21-3.3,.83-3.84,2.41-.61-.21-1.15-.22-1.54-.2-.04-.68-.25-1.31-.62-1.85-.52-.76-1.27-1.24-2.13-1.35-1.76-.21-3.39,1.23-3.62,3.21-.24,1.98,.99,3.77,2.74,3.97,.12,.01,.23,.02,.34,.02,1.58,0,2.97-1.32,3.24-3.11,.29-.03,.82-.04,1.4,.17-.16,1.93,1.22,3.67,3.16,3.9,.15,.02,.29,.02,.45,.02,.8,0,1.58-.27,2.22-.77,.76-.6,1.24-1.45,1.36-2.42v-.23l5.28,.04c.24,0,.43-.2,.45-.44,0-.24-.2-.45-.43-.45h0Zm-14.73-.05c-.18,1.5-1.36,2.59-2.63,2.44-1.27-.15-2.16-1.49-1.97-2.99,.18-1.4,1.22-2.45,2.4-2.45,.08,0,.16,0,.24,.01,.6,.08,1.14,.41,1.51,.97,.38,.57,.55,1.28,.46,2.02Zm8.56,1.03c-.18,1.5-1.56,2.56-3.04,2.38-.73-.09-1.37-.46-1.82-1.02-.45-.58-.65-1.29-.57-2.01,.16-1.38,1.35-2.41,2.71-2.41,.11,0,.22,0,.33,.02,.73,.09,1.37,.46,1.82,1.02,.45,.58,.65,1.28,.57,2.01Z"/></svg>