<?xml version="1.0" encoding="UTF-8"?><svg id="Layer_1" xmlns="http://www.w3.org/2000/svg" xmlns:xlink="http://www.w3.org/1999/xlink" viewBox="0 0 84.42 84.39"><defs><style>.cls-1{fill:none;}.cls-2{clip-path:url(#clippath);}.cls-3{fill:#fff;}.cls-4{fill:#f25178;}.cls-5{fill:#dd2c52;}.cls-6{fill:#d6ccff;}.cls-7{fill:#19ecc9;}.cls-8{fill:#80ffea;}.cls-9{clip-path:url(#clippath-1);}.cls-10{clip-path:url(#clippath-2);}.cls-11{isolation:isolate;opacity:.2;}</style><clipPath id="clippath"><rect class="cls-1" x=".02" y=".01" width="84.38" height="84.38"/></clipPath><clipPath id="clippath-1"><rect class="cls-1" x=".02" y=".01" width="84.38" height="84.38"/></clipPath><clipPath id="clippath-2"><rect class="cls-1" x=".02" y=".01" width="84.38" height="84.38"/></clipPath></defs><g class="cls-2"><path class="cls-6" d="M42.25,84.38c23.3,0,42.19-18.89,42.19-42.19S65.55,0,42.25,0,.06,18.89,.06,42.19s18.89,42.19,42.19,42.19Z"/></g><g class="cls-9"><g><path class="cls-4" d="M75.89,67.63c-7.65-1.89-17.97-4.19-21.06-4.88-.73-3.04-1.59-6.96-2.43-11.75-1.78-10.09-1.55-15.19-1.55-15.2,0,0,.11-.05,.28-.14,.75-.4,2.85-1.65,3.71-3.68,1-2.39,.33-4.34-1.24-5.12-.37-.18-.77-.21-1.16-.14-1.18,.19-2.31,1.17-2.31,1.17,0,0,1.39-9.77-6.85-12.21-7.06-2.09-11.44,1.05-13.01,8.52-2.62,12.52-3.56,18.79,1.86,21.92,2.08,1.2,4.7,.59,4.7,.59l-1.24,16.04c-3.82,.85-18.85,4.2-26.02,6.15,7.74,9.45,19.49,15.48,32.66,15.48s25.96-6.58,33.66-16.75Z"/><path class="cls-11" d="M36.84,46.71s4.52-.81,7.86-4.74v3.84s-3.24,4.45-8.29,6.45l.43-5.55Z"/><path d="M50.48,30.69s-.1,0-.15-.03c-.21-.08-.32-.33-.23-.54,.52-1.31,1.74-1.61,1.79-1.62,.22-.05,.44,.09,.5,.31,.05,.22-.09,.44-.31,.5-.04,0-.85,.22-1.21,1.12-.06,.16-.22,.26-.39,.26Z"/><path d="M33.98,35.83h-.06s-1.7-.24-2.12-.35c-.19-.05-.28-.2-.28-.2-.09-.14-.11-.31-.06-.46l2.06-6.16c.07-.22,.3-.34,.52-.26,.22,.07,.33,.31,.26,.52l-1.95,5.83,1.68,.26c.23,.03,.38,.25,.35,.47-.03,.21-.21,.35-.41,.35h0Z"/></g></g><g class="cls-10"><g><path class="cls-7" d="M75.86,67.66c-7.65-1.89-17.97-4.19-21.05-4.88,0-.03-.02-.07-.02-.1-1.62,1.19-9.68,6.78-17.15,5.89-5.3-.64-3.28-4.42-2.43-5.71-4.34,.96-18.65,4.17-25.62,6.06,7.74,9.43,19.48,15.46,32.64,15.46s25.93-6.57,33.64-16.72h0Z"/><path class="cls-8" d="M36.81,70.79c9.64,0,20.87-1.16,32.86-4.62-.38-.09-.76-.18-1.14-.27-23.59,6.57-44.08,4.27-55.05,2.01-.42,.1-.82,.21-1.22,.31,5.64,1.23,14.16,2.56,24.55,2.56h0Z"/><path class="cls-8" d="M73.76,70.2c-24.43,7.08-46.15,5.8-59.31,3.75,.27,.24,.55,.46,.82,.69,5.53,.83,12.45,1.5,20.39,1.5,10.91,0,23.73-1.28,37.4-5.15,.24-.26,.47-.52,.7-.78h0Z"/><path class="cls-8" d="M64.42,78.06c-15.46,3.64-29.34,3.6-39.75,2.5,.54,.25,1.09,.49,1.64,.72,3.35,.31,7,.51,10.94,.51,7.66,0,16.34-.76,25.61-2.79,.53-.3,1.05-.61,1.57-.93h-.01Z"/></g></g><path d="M51.07,16.12s-.54-1.62-2.8-2.41c-5.59-1.96-10.65-1.05-13.21-.2-1.18,.39-2.91,2.24-3.21,4.2-.55,.56-2.16,2.5-1.52,5.9,.36-1.04,.61-2.25,1.66-4.29,.26,.61,.6,1.29,1.41,1.87,3.67,2.66,10.58,2.33,14.37,1.43,0,0-1.42,4.85-.35,8.16,.17,.97,1.18,1.1,1.39,.68,0,0,.24-2.72,2.22-3.99,.8-.51,1.62-.71,2.3-.66l.46-1.51c2.26-7.4-.37-9.68-2.71-9.18h0Z"/><path d="M32.19,27.94c.25-.25,.25-.65,0-.89-.25-.25-.64-.25-.89,0-.25,.25-.25,.64,0,.89,.25,.25,.65,.24,.89,0Z"/><path d="M37.98,28.77c.25-.25,.25-.65,0-.89-.25-.25-.64-.25-.89,0-.25,.25-.25,.65,0,.89,.25,.25,.65,.25,.89,0Z"/><path class="cls-5" d="M34.88,37.94s1.59,0,3.74-.8c.03-.01,.07-.02,.08,.02,.14,.4,.33,1.45-.69,1.96-1.27,.64-2.69,.1-3.02-1.16"/><path class="cls-3" d="M38.52,38.02s-.95,.67-2.92,.59l-.41-.5,3.6-.84-.27,.75Z"/><path d="M37,39.78c-.45,0-.92-.11-1.31-.32-.48-.26-.84-.66-1.03-1.15h-.24c-.22,0-.4-.18-.4-.41s.18-.4,.41-.4c0,0,2.17,0,4.05-.73,.22-.09,.46,0,.58,.21l.02,.03c.14,.4,.2,1.06-.08,1.63-.24,.48-.67,.83-1.28,1.03-.22,.07-.47,.11-.72,.11Zm-1.46-1.53c.13,.2,.31,.37,.54,.49,.49,.26,1.05,.27,1.39,.16,.39-.13,.66-.33,.8-.61,.1-.21,.12-.43,.11-.62-1.03,.35-2.08,.51-2.84,.59h0Z"/></svg>