<?xml version="1.0" encoding="UTF-8"?><svg id="Layer_1" xmlns="http://www.w3.org/2000/svg" xmlns:xlink="http://www.w3.org/1999/xlink" viewBox="0 0 84.39 84.69"><defs><style>.cls-1{fill:none;}.cls-2{clip-path:url(#clippath);}.cls-3{fill:#ffc9b3;}.cls-4{fill:#f25178;}.cls-5{fill:#ff88a2;}.cls-6{fill:#47d3ff;}.cls-7{opacity:.85;}.cls-8{isolation:isolate;opacity:.2;}</style><clipPath id="clippath"><rect class="cls-1" y=".31" width="84.38" height="84.38"/></clipPath></defs><g class="cls-2"><path class="cls-3" d="M42.2,84.38c23.3,0,42.19-18.89,42.19-42.19S65.5,0,42.2,0,0,18.89,0,42.19s18.89,42.19,42.19,42.19Z"/></g><path class="cls-4" d="M75.77,67.67c-7.65-1.89-17.94-4.18-21.03-4.87-.73-3.04-1.58-6.96-2.43-11.75-1.78-10.09-1.55-15.2-1.55-15.2,0,0,.93-.42,1.93-1.23,.78-.63,1.6-1.5,2.06-2.6,1.01-2.39,.33-4.35-1.25-5.13-1.46-.72-3.47,1.03-3.47,1.03,0,0,1.3-9.65-4.98-12.45-6.21-2.77-12.6-1.03-14.46,6.41-3.59,14.31-.81,22.15,3.24,24.29,1.41,.74,2.9,.59,2.9,.59l.02-.02-1.24,16.04c-3.82,.85-18.84,4.2-26.02,6.15,7.74,9.43,19.48,15.45,32.63,15.45s25.93-6.57,33.64-16.73v.02Z"/><path class="cls-8" d="M36.75,46.76s3.72,.13,7.86-4.74v3.84s-3.24,4.45-8.29,6.45l.43-5.55Z"/><path d="M50.39,30.74c-.05,0-.1,0-.15-.03-.21-.08-.32-.33-.23-.54,.52-1.31,1.74-1.61,1.79-1.62,.22-.05,.44,.09,.5,.31,.05,.22-.09,.44-.31,.5-.04,0-.85,.22-1.21,1.12-.06,.16-.22,.26-.39,.26Z"/><path d="M33.89,35.88h-.06s-1.7-.24-2.12-.35c-.19-.05-.28-.2-.28-.2-.09-.14-.11-.31-.06-.46l2.06-6.16c.07-.22,.3-.34,.52-.26,.22,.07,.33,.31,.26,.52l-1.95,5.83,1.68,.26c.23,.03,.38,.25,.35,.47-.03,.21-.21,.35-.41,.35h.01Z"/><path class="cls-6" d="M75.72,67.64c-6.18-1.53-14.08-3.32-18.52-4.31-1.98,2.94-5.43,9.89-5.43,9.89l-16.62,.63-4.84-9.93c-6.18,1.4-15.61,3.57-20.86,5,7.74,9.43,19.48,15.46,32.64,15.46s25.93-6.57,33.64-16.72v-.02Z"/><g class="cls-7"><path d="M40.34,77.39h-.02c-1.02,0-1.7-.52-2.1-1.06-.37,.5-1.09,.97-2.22,.94-.64-.01-1.16-.22-1.53-.61-.31-.33-.47-.72-.54-1.04-.79,.28-1.95,.37-2.73-.62-.56-.7-.33-1.51,.06-2.11-.52-.09-1.16-.34-1.56-1.02-.41-.69-.24-1.38,.05-1.89-.47-.1-1.02-.36-1.36-1.01-.34-.66-.15-1.27,.12-1.71-.46-.05-1-.21-1.38-.59-.15-.16-.15-.41,0-.57,.16-.16,.41-.15,.57,0,.41,.41,1.3,.4,1.61,.36,.17-.03,.35,.07,.42,.24,.07,.16,.03,.35-.11,.47,0,0-.88,.74-.52,1.43,.4,.76,1.35,.63,1.39,.63,.17-.03,.35,.07,.42,.23,.07,.16,.03,.35-.1,.47-.04,.03-.88,.77-.43,1.54,.49,.83,1.62,.65,1.64,.65,.17-.03,.35,.06,.42,.22,.08,.16,.04,.35-.09,.47,0,0-1.09,1.01-.54,1.7,.8,1.01,2.16,.21,2.22,.18,.12-.07,.28-.07,.41,0s.2,.21,.2,.35,.02,1.41,1.37,1.44c1.6,.05,1.77-1.06,1.78-1.1,.02-.19,.17-.33,.36-.35,.21-.02,.36,.1,.42,.28,.02,.05,.41,1.27,1.76,1.28h.01c1.35,0,1.58-1.11,1.6-1.24,.03-.17,.16-.3,.33-.33,.17-.03,.34,.05,.42,.2,.03,.05,.66,1.15,1.93,1.19,1.24,.04,1.63-1.15,1.63-1.16,.05-.15,.18-.26,.33-.28,.16-.02,.31,.05,.39,.19,0,0,.85,1.35,1.97,1.26,.3-.03,.51-.13,.63-.29,.21-.29,.14-.72,.14-.72-.04-.2,.08-.39,.26-.45,.19-.07,.4,.02,.49,.2,.05,.09,.5,.88,1.62,.55,.31-.09,.41-.24,.45-.35,.18-.44-.13-1.2-.26-1.43-.09-.16-.05-.36,.08-.49,.13-.12,.34-.14,.49-.04,.06,.04,1.38,.89,2.23-.06,.59-.67-.44-1.72-.45-1.73-.12-.13-.15-.32-.07-.47,.08-.16,.26-.24,.43-.2,.05,0,1.15,.23,1.67-.56,.49-.74-.31-1.53-.35-1.56-.13-.12-.16-.32-.08-.48,.08-.16,.27-.24,.44-.2,.04,0,.99,.19,1.42-.55,.4-.67-.43-1.45-.44-1.46-.13-.12-.17-.31-.09-.47,.08-.16,.25-.25,.43-.21,.31,.06,1.2,.12,1.63-.27,.16-.15,.42-.14,.56,.03,.15,.16,.14,.42-.03,.56-.4,.37-.95,.49-1.41,.52,.25,.46,.4,1.08,.03,1.72-.37,.63-.94,.86-1.41,.94,.27,.53,.4,1.22-.05,1.89-.43,.66-1.08,.88-1.61,.94,.35,.62,.54,1.44-.05,2.12-.69,.79-1.61,.82-2.35,.61,.08,.37,.1,.8-.05,1.18-.11,.28-.38,.64-.97,.81-.81,.23-1.44,.06-1.89-.23-.04,.12-.11,.25-.2,.36-.26,.35-.67,.56-1.2,.61-1.03,.11-1.86-.58-2.32-1.09-.38,.55-1.03,1.1-2.11,1.09-1.01-.03-1.72-.54-2.14-.98-.33,.58-.98,1.16-2.11,1.16l.04-.03Z"/></g><path d="M53.6,22.47c-.46-2.34-1.17-3.59-1.83-4.26,.43-.27,.83-.61,1.17-1.05,1.38-1.83,1.25-6.34-3.51-6.36-1.94,0-3,1.18-3.58,2.4-3.58-2.19-6.74-2.18-8.57-1.67-3.05,.84-5.03,4.29-6.51,7.54-.43,.94-1.61,2.06-1.98,3.1-.7,1.99-.49,2.39-.29,4.04,.2,1.65-1.84,2.8-1.09,4.67,.75,1.87,.91,1.74,.91,1.74,0,0-.44-2.19,.33-3.37,.77-1.18,1.68-1.44,1.27-3.63-.22-1.21,.23-2.08,.83-2.81,1.63-1.58,4.69-4.3,6.62-4.33,.28,0,3.33,5.3,6.18,8.42,1.63,1.79,2.37,2.22,3.02,3.61,0,.29-.13,.55-.4,.93-1.28,1.8-.58,2.41-.38,3.82,.2,1.41-1.13,3.2-1.13,3.2,0,0,.09,.18,1.56-1.19,1.48-1.37,.13-3.28,.99-4.69,.7-1.14,2.17-2.62,2.81-4.26,.34-.37,.73-.74,1.19-1.03,.27-.17,.53-.3,.8-.39,.4-.14,1.17-.16,1.72,.21,0,0,.29-2.48-.14-4.64h0Z"/><path d="M32.13,28.31c.26-.26,.26-.67,0-.93-.26-.26-.67-.26-.93,0-.26,.26-.26,.67,0,.93,.26,.26,.67,.26,.93,0Z"/><path d="M37.97,29.18c.26-.26,.26-.67,0-.93-.26-.26-.67-.26-.93,0-.26,.26-.26,.67,0,.93,.26,.26,.67,.26,.93,0Z"/><path d="M38.01,28.39s.38,.18,.88,0c0,0-.22,.48-.91,.48l.03-.49h0Z"/><path d="M31.38,27.29s-.42,.01-.81-.35c0,0,0,.54,.65,.82l.17-.47Z"/><path d="M34.87,39.04c-.21,0-.38-.16-.4-.37-.02-.22,.14-.42,.37-.44,0,0,1.25-.13,1.76-1.1,.11-.2,.35-.27,.55-.17,.2,.1,.28,.35,.17,.55-.71,1.36-2.33,1.52-2.4,1.53h-.05Z"/><path class="cls-5" d="M28.9,31.26c1.11,.21,2.1-.11,2.22-.73,.12-.62-.68-1.29-1.79-1.5-1.11-.21-2.1,.11-2.22,.73-.12,.62,.68,1.29,1.79,1.5Z"/><path class="cls-5" d="M39.39,32.97c1.15,0,2.09-.53,2.09-1.18s-.93-1.18-2.09-1.18-2.09,.53-2.09,1.18,.93,1.18,2.09,1.18Z"/></svg>