<?xml version="1.0" encoding="UTF-8"?><svg id="Layer_1" xmlns="http://www.w3.org/2000/svg" xmlns:xlink="http://www.w3.org/1999/xlink" viewBox="0 0 84.47 84.39"><defs><style>.cls-1{fill:none;}.cls-2{clip-path:url(#clippath);}.cls-3{fill:#ffdd2a;}.cls-4{fill:#fffac9;}.cls-5{fill:#f25178;}.cls-6{clip-path:url(#clippath-1);}.cls-7{clip-path:url(#clippath-2);}.cls-8{opacity:.2;}.cls-8,.cls-9{isolation:isolate;}.cls-9{opacity:.61;}</style><clipPath id="clippath"><rect class="cls-1" x=".04" y="0" width="84.38" height="84.38"/></clipPath><clipPath id="clippath-1"><rect class="cls-1" x=".04" y="0" width="84.38" height="84.38"/></clipPath><clipPath id="clippath-2"><rect class="cls-1" x=".04" y="0" width="84.38" height="84.38"/></clipPath></defs><g class="cls-2"><path class="cls-4" d="M42.15,84.37c23.3,0,42.19-18.89,42.19-42.19S65.45,0,42.15,0-.04,18.89-.04,42.18s18.89,42.19,42.19,42.19Z"/></g><g class="cls-6"><g><path class="cls-5" d="M75.88,67.65c-7.66-1.89-18.01-4.2-21.1-4.89-.73-3.03-1.58-6.97-2.42-11.74-1.75-9.94-1.55-15.03-1.55-15.18,0,0,2.93-1.33,3.98-3.82,.5-1.2,.58-2.28,.34-3.17-.24-.89-.8-1.57-1.59-1.96-1.45-.72-3.45,1.01-3.46,1.03,.01-.15,.8-9.71-7.12-12.87-4.46-1.77-10.59-.53-12.33,7.13-3.26,14.37-2.45,19.74-1.16,21.58,1.56,2.21,7.3,2.99,7.31,3l-1.23,16.01c-3.79,.84-18.75,4.18-25.96,6.13,7.74,9.44,19.49,15.47,32.65,15.47s25.92-6.56,33.63-16.71h0Z"/><path class="cls-8" d="M36.79,46.73s4.44,.58,7.86-2.68v2.81s-3.24,3.42-8.29,5.42l.43-5.55Z"/><path d="M50.43,30.73c-.05,0-.1,0-.15-.03-.21-.08-.32-.33-.23-.54,.52-1.31,1.74-1.61,1.79-1.62,.22-.05,.44,.09,.5,.31,.05,.22-.09,.44-.31,.5-.04,0-.85,.22-1.21,1.12-.06,.16-.22,.26-.39,.26Z"/><path d="M33.94,35.85h-.06s-1.7-.24-2.12-.35c-.19-.05-.28-.2-.28-.2-.09-.14-.11-.31-.06-.46l2.06-6.16c.07-.22,.3-.34,.52-.26,.22,.07,.33,.31,.26,.52l-1.95,5.83,1.68,.26c.23,.03,.38,.25,.35,.47-.03,.21-.21,.35-.41,.35h0Z"/></g></g><g class="cls-7"><g><path class="cls-3" d="M55.05,62.83c-.27-1.17-.45-3.31-.51-4.35-.03-.52-.45-.93-1.04-.57-2.87,1.73-12.12,3.1-17.27,.73-.36-.17-.82,.28-.84,.87-.02,.7,0,2.19-.17,3.35-4.34,.96-18.65,4.17-25.62,6.06,7.74,9.43,19.48,15.46,32.64,15.46s25.93-6.57,33.64-16.72c-7.49-1.85-17.51-4.09-20.83-4.82h0Z"/><path d="M51.24,65.72h-.03c-.25-.02-.43-.23-.42-.48,0-.02,.16-2.29-.68-3.98-.11-.22-.02-.49,.2-.6,.22-.11,.49-.02,.6,.2,.95,1.92,.78,4.34,.77,4.45-.02,.24-.22,.42-.45,.42h.01Z"/><path d="M38.87,65.93c-.21,0-.4-.15-.44-.37-.02-.08-.37-2.06,.42-3.97,.1-.23,.36-.34,.59-.24,.23,.09,.34,.36,.24,.59-.69,1.66-.37,3.44-.37,3.46,.04,.24-.12,.48-.36,.52h-.08Z"/><path d="M44.86,66.25h-.05c-.25-.03-.43-.25-.4-.5,0-.02,.19-1.81-.14-3.83-.04-.25,.13-.48,.37-.52,.24-.04,.48,.13,.52,.37,.35,2.15,.15,3.99,.15,4.07-.03,.23-.22,.4-.45,.4h0Z"/></g></g><path d="M53.97,23.99c.57-1.27,.32-2.19-.27-2.78,1.19-2.15-1.11-2.76-1.11-2.76,1.07-2.04-1.27-2.6-1.27-2.6,.51-2.67-2.58-2.29-2.58-2.29-.91-2.4-3.82-1.26-3.82-1.26-2.16-2.65-4.72,.07-4.72,.07-2.63-1.29-3.8,1.45-3.8,1.45-2.7-.22-3.05,2.38-3.05,2.38,0,0-1.23,.31-1.85,1.49-.27,.51-.33,1.07-.35,1.52-.98,.97-2.22,2.77-.89,5.01,.22-.65,.34-1.35,.89-2.24,.43,1.04,1.81,.74,1.81,.74,1.68,2.32,4.18,.37,4.18,.37,2.37,1.57,3.97-.45,3.97-.45,2.42,1.43,3.92-.38,3.92-.38-.64,2.72,2.21,2.99,2.21,2.99-.52,1.29-.55,2.2,.53,3.11,.04,.77,.13,1.48,.35,1.99,.38,.88,1.11,.76,1.3,.41,0,0,.21-2.26,1.85-3.31,.66-.43,1.45-.72,2.49-.39,0,0,.43-.24,.6-.9,.39-1.5-.38-2.18-.38-2.18h-.01Z"/><path d="M33.21,26.79l-1.76-.19c-.23-.03-.42,.14-.45,.36-.02,.22,.14,.42,.36,.45l.72,.08s-.04,.09-.05,.15c-.03,.26,.16,.5,.42,.53,.26,.03,.5-.16,.53-.42,0-.05,0-.1-.01-.15l.15,.02h.04c.2,0,.38-.15,.4-.36,.02-.22-.14-.42-.36-.45v-.02Z"/><path d="M39.9,27.51l-2.14-.23c-.24-.03-.42,.14-.45,.36-.02,.22,.14,.42,.36,.45l1.15,.12s-.04,.08-.04,.13c-.03,.26,.16,.5,.42,.53,.26,.03,.5-.16,.53-.42,0-.05,0-.09-.01-.13h.09s.03,0,.04,0c.2,0,.38-.15,.4-.36,.02-.22-.14-.42-.36-.45h0Z"/><path d="M37.49,37.6s-.57-.13-.71-.69c-.05-.22-.27-.35-.49-.29-.22,.05-.35,.28-.29,.49,.04,.16,.1,.29,.16,.41-.24,.75-1.17,.73-1.22,.74-.25-.02-.41,.16-.42,.39-.01,.23,.16,.41,.39,.42h.07c.5,0,1.34-.21,1.77-.91,.29,.18,.55,.24,.57,.24h.08c.19,0,.35-.13,.39-.32,.05-.22-.09-.43-.31-.48h.01Z"/><path class="cls-9" d="M35.43,28.96c-.15-.97,.32-1.93,1.21-2.34,.73-.34,1.83-.58,3.41-.29,3.36,.61,4.5,1.88,4.31,3.24-.18,1.36-1.44,3.83-3.29,3.88-2.65,.08-5.26-2.07-5.64-4.5h0Z"/><path class="cls-9" d="M32.91,29.09c.84-1.32,.45-2.75-1.09-3.54-.69-.35-1.68-.54-2.73-.62-2.37-.17-2.71,3.04-2.55,4.17s.87,2.55,2.18,2.8c.86,.16,3.09-1.12,4.18-2.82h.01Z"/><path d="M40.13,25.9c-1.42-.26-2.66-.14-3.67,.33-.48,.23-.86,.59-1.12,1.02-.64-.39-1.33-.42-1.72-.38-.25-.7-.8-1.28-1.59-1.7-.68-.35-1.67-.58-2.89-.66-.8-.07-1.48,.21-1.99,.76-1.04,1.11-1.13,3.11-1.02,3.92,.2,1.37,1.06,2.88,2.54,3.17,.08,0,.16,.02,.25,.02,1.23,0,3.38-1.46,4.39-3.04,.33-.51,.49-1.06,.49-1.59,.3-.01,.82,.02,1.24,.36-.05,.31-.07,.62-.02,.95,.41,2.62,3.17,4.88,5.94,4.87h.14c2.2-.07,3.52-2.85,3.71-4.27,.14-1.06-.27-2.95-4.67-3.75h0Zm-7.59,2.94c-1.03,1.63-3.08,2.73-3.72,2.62-1.06-.21-1.68-1.37-1.83-2.43-.1-.71,.02-2.37,.8-3.19,.3-.33,.67-.49,1.13-.49h.15c1.1,.08,1.98,.28,2.56,.58,.65,.33,1.07,.79,1.22,1.34,.13,.5,.03,1.04-.3,1.57Zm8.52,4.17h-.13c-2.36,0-4.71-1.9-5.06-4.13-.12-.79,.26-1.55,.96-1.87,.54-.25,1.18-.38,1.88-.38,.4,0,.82,.04,1.26,.12,1.58,.28,4.18,1.02,3.95,2.75-.16,1.2-1.29,3.45-2.86,3.49h0Z"/></svg>