<?xml version="1.0" encoding="UTF-8"?><svg id="Layer_1" xmlns="http://www.w3.org/2000/svg" xmlns:xlink="http://www.w3.org/1999/xlink" viewBox="0 0 84.44 84.49"><defs><style>.cls-1{fill:none;}.cls-2{clip-path:url(#clippath);}.cls-3{fill:#fff;}.cls-4{fill:#ffe1e1;}.cls-5{fill:#ff4135;}.cls-6{fill:#f25178;}.cls-7{fill:#ff88a2;}.cls-8{fill:#d6ccff;}.cls-9{fill:#4b4b4b;}.cls-10{isolation:isolate;opacity:.2;}</style><clipPath id="clippath"><rect class="cls-1" x=".06" y=".11" width="84.38" height="84.38"/></clipPath></defs><g class="cls-2"><path class="cls-8" d="M42.19,84.38c23.3,0,42.19-18.89,42.19-42.19S65.49,0,42.19,0,0,18.89,0,42.19s18.89,42.19,42.19,42.19Z"/></g><path class="cls-6" d="M75.73,67.43c-7.65-1.89-17.97-4.19-21.06-4.88-.73-3.04-1.59-6.96-2.43-11.75-1.78-10.09-1.55-15.19-1.55-15.2,0,0,.11-.05,.28-.14,.75-.4,2.85-1.65,3.71-3.68,1-2.39,.33-4.34-1.24-5.12-.37-.18-.77-.21-1.16-.14-1.18,.19-2.31,1.17-2.31,1.17,0,0,1.39-9.77-6.85-12.21-7.06-2.09-11.44,1.05-13.01,8.52-2.62,12.52-3.56,18.79,1.86,21.92,2.08,1.2,4.7,.59,4.7,.59l-1.24,16.04c-3.82,.85-18.85,4.2-26.02,6.15,7.74,9.45,19.49,15.48,32.66,15.48s25.96-6.58,33.66-16.75Z"/><path class="cls-10" d="M36.68,46.51s4.52-.81,7.86-4.74v3.84s-3.24,4.45-8.29,6.45l.43-5.55Z"/><path d="M50.32,30.49c-.05,0-.1,0-.15-.03-.21-.08-.32-.33-.23-.54,.52-1.31,1.74-1.61,1.79-1.62,.22-.05,.44,.09,.5,.31,.05,.22-.09,.44-.31,.5-.04,0-.85,.22-1.21,1.12-.06,.16-.22,.26-.39,.26Z"/><path d="M33.82,35.63h-.06s-1.7-.24-2.12-.35c-.19-.05-.28-.2-.28-.2-.09-.14-.11-.31-.06-.46l2.06-6.16c.07-.22,.3-.34,.52-.26,.22,.07,.33,.31,.26,.52l-1.95,5.83,1.68,.26c.23,.03,.38,.25,.35,.47-.03,.21-.21,.35-.41,.35h.01Z"/><path class="cls-5" d="M75.73,67.48c-7.65-1.89-17.97-4.19-21.05-4.88,0-.03-.02-.07-.02-.1-1.62,1.19-9.68,6.78-17.15,5.89-5.3-.64-3.28-4.42-2.43-5.71-4.34,.96-18.65,4.17-25.62,6.06,7.74,9.43,19.48,15.46,32.64,15.46s25.93-6.57,33.64-16.72h-.01Z"/><path class="cls-4" d="M55.37,78.25c2.02,0,3.65-1.62,3.65-3.62s-1.64-3.62-3.65-3.62-3.65,1.62-3.65,3.62,1.63,3.62,3.65,3.62Z"/><path class="cls-4" d="M60.73,63.97c.32,1.7,1.82,2.99,3.62,2.99,1.21,0,2.28-.58,2.95-1.48-2.32-.54-4.58-1.06-6.57-1.51Z"/><path class="cls-4" d="M34.93,80.2c-.93-1.54-2.92-2.05-4.45-1.13-1.08,.65-1.63,1.84-1.54,3.03,1.93,.63,3.91,1.15,5.96,1.5,.63-1,.69-2.31,.04-3.39h0Z"/><path class="cls-4" d="M19.36,72.3c2,0,3.63-1.61,3.63-3.6,0-1.2-.6-2.26-1.51-2.91-1.8,.42-3.61,.85-5.33,1.27-.26,.5-.42,1.05-.42,1.64,0,1.99,1.62,3.6,3.63,3.6Z"/><path class="cls-3" d="M37.51,68.4c-5.02-.6-3.48-4.03-2.58-5.48,.05-.08,.09-.16,.13-.22-.25,.06-.55,.12-.86,.19-2.29,2.44-4.01,5.76-2.08,7.66,2.35,2.31,6.06-.69,7.34-2.07-.65,0-1.31,0-1.96-.08h.01Z"/><path class="cls-3" d="M54.68,62.61s-.02-.07-.02-.1c-1.47,1.08-8.29,5.8-15.14,5.96,.12,1.26,.71,4.2,3.55,4.3,3.48,.13,8.57-3.71,12.11-10.06-.17-.04-.35-.08-.49-.11h0Z"/><path class="cls-3" d="M29.24,28.01s7.49-13.35,14.64,3.37c0,0-.15-6.71-3.5-10.85-1.14-1.42-3.37-3.18-6.42-.99-1.71,1.22-3.53,4.32-4.7,8.48h-.01Z"/><path d="M55.08,46.84c0-1.69,.35-2.65,.57-8,.58-14.21-1.21-23.55-12.64-25.63-2.54-.46-5.45-.45-8.36,1.37-4.54,2.85-5.38,10.72-5.38,13.43,0,0,1.95-7.31,5.53-8.86,1.76-.76,3.65-.61,5.21,1.55,2.86,3.97,4.15,7.57,4.52,18.14,.05,1.33-2.97,6.06-7.9,8l-.36,.58c-2.4,4.36-9.83,15.56-17.59,19.31,0,0,7.01,16.91,24.23,16.99,16.48,.08,23.77-13,26.97-17.41,0,0-14.79-9.58-14.79-19.47Z"/><path class="cls-9" d="M41.02,78.49c-7.75,0-14.09-6.53-16.09-11.37-.09-.22,.01-.47,.23-.57,.22-.09,.47,.01,.57,.23,2.07,4.98,8.92,11.83,17.06,10.71,12.76-1.76,16.64-13.91,16.68-14.03,.07-.23,.31-.36,.54-.29,.23,.07,.36,.31,.29,.54-.04,.13-4.07,12.81-17.39,14.64-.63,.09-1.26,.13-1.88,.13h-.01Z"/><path class="cls-9" d="M41.64,67.66c-.66-.03-1.3-.12-1.95-.29-2.73-.69-4.95-2.58-6.07-5.18-.1-.22,0-.47,.22-.57,.22-.09,.47,0,.57,.22,1.01,2.35,3.01,4.06,5.49,4.68,2.69,.68,5.54,.03,7.83-1.75,4.89-3.85,5.77-12.36,6.49-19.2,.11-1.04,.21-2.04,.32-2.97,.03-.24,.25-.39,.48-.37,.24,.03,.41,.25,.37,.48-.11,.93-.22,1.92-.32,2.95-.73,7-1.64,15.71-6.81,19.79-1.95,1.54-4.29,2.31-6.62,2.21h.01Z"/><path class="cls-9" d="M44.81,40.63c-.08,0-.16-.02-.23-.07-.2-.13-.26-.39-.13-.6,5.39-8.46,2.41-14.96,2.39-15.02-.1-.22-.01-.47,.21-.58,.22-.1,.47,0,.58,.21,.14,.28,3.23,6.98-2.44,15.86-.08,.13-.22,.2-.37,.2h-.01Z"/><path d="M32.19,28.11c.26-.26,.26-.67,0-.93-.26-.26-.67-.26-.93,0-.26,.26-.26,.67,0,.93,.26,.26,.67,.26,.93,0Z"/><path d="M38.03,28.98c.26-.26,.26-.67,0-.93-.26-.26-.67-.26-.93,0-.26,.26-.26,.67,0,.93,.26,.26,.67,.26,.93,0Z"/><path d="M38.07,28.19s.38,.18,.88,0c0,0-.22,.48-.92,.48l.03-.49h0Z"/><path d="M31.44,27.09s-.42,.01-.81-.35c0,0,0,.54,.65,.82l.16-.47Z"/><path d="M37.5,37.71s-.57-.13-.71-.69c-.05-.22-.27-.35-.49-.29-.22,.05-.35,.28-.29,.49,.04,.16,.1,.29,.16,.41-.24,.75-1.17,.73-1.22,.74-.25-.02-.41,.16-.42,.39-.01,.23,.16,.41,.39,.42h.07c.5,0,1.34-.21,1.77-.91,.29,.18,.55,.24,.57,.24h.08c.19,0,.35-.13,.39-.32,.05-.22-.09-.43-.31-.48h.01Z"/><path class="cls-7" d="M28.96,31.06c1.11,.21,2.1-.11,2.22-.73,.12-.62-.68-1.29-1.79-1.5-1.11-.21-2.1,.11-2.22,.73-.12,.62,.68,1.29,1.79,1.5Z"/><path class="cls-7" d="M39.45,32.77c1.15,0,2.09-.53,2.09-1.18s-.93-1.18-2.09-1.18-2.09,.53-2.09,1.18,.93,1.18,2.09,1.18Z"/></svg>