<?xml version="1.0" encoding="UTF-8"?><svg id="Layer_1" xmlns="http://www.w3.org/2000/svg" xmlns:xlink="http://www.w3.org/1999/xlink" viewBox="0 0 84.39 84.69"><defs><style>.cls-1{fill:none;}.cls-2{clip-path:url(#clippath);}.cls-3{fill:#fff;}.cls-4{fill:#ffdd2a;}.cls-5{fill:#fffac9;}.cls-6{fill:#f25178;}.cls-7{fill:#ff88a2;}.cls-8{fill:#dd2c52;}.cls-9{fill:#47d3ff;}.cls-10{opacity:.85;}.cls-11{isolation:isolate;opacity:.2;}</style><clipPath id="clippath"><rect class="cls-1" y=".31" width="84.38" height="84.38"/></clipPath></defs><g class="cls-2"><path class="cls-5" d="M42.2,84.38c23.3,0,42.19-18.89,42.19-42.19S65.5,0,42.2,0,.01,18.89,.01,42.19s18.89,42.19,42.19,42.19Z"/></g><path class="cls-6" d="M75.67,67.63c-7.65-1.89-17.97-4.19-21.06-4.88-.73-3.04-1.59-6.96-2.43-11.75-1.78-10.09-1.55-15.19-1.55-15.2,0,0,.11-.05,.28-.14,.75-.4,2.85-1.65,3.71-3.68,1-2.39,.33-4.34-1.24-5.12-.37-.18-.77-.21-1.16-.14-1.18,.19-2.31,1.17-2.31,1.17,0,0,1.39-9.77-6.85-12.21-7.06-2.09-11.44,1.05-13.01,8.52-2.62,12.52-3.56,18.79,1.86,21.92,2.08,1.2,4.7,.59,4.7,.59l-1.24,16.04c-3.82,.85-18.85,4.2-26.02,6.15,7.74,9.45,19.49,15.48,32.66,15.48s25.96-6.58,33.66-16.75Z"/><path class="cls-11" d="M36.62,46.71s4.52-.81,7.86-4.74v3.84s-3.24,4.45-8.29,6.45l.43-5.55Z"/><path d="M50.26,30.69c-.05,0-.1,0-.15-.03-.21-.08-.32-.33-.23-.54,.52-1.31,1.74-1.61,1.79-1.62,.22-.05,.44,.09,.5,.31,.05,.22-.09,.44-.31,.5-.04,0-.85,.22-1.21,1.12-.06,.16-.22,.26-.39,.26Z"/><path d="M33.76,35.83h-.06s-1.7-.24-2.12-.35c-.19-.05-.28-.2-.28-.2-.09-.14-.11-.31-.06-.46l2.06-6.16c.07-.22,.3-.34,.52-.26,.22,.07,.33,.31,.26,.52l-1.95,5.83,1.68,.26c.23,.03,.38,.25,.35,.47-.03,.21-.21,.35-.41,.35h.01Z"/><path class="cls-9" d="M75.72,67.64c-6.18-1.53-14.08-3.32-18.52-4.31-1.98,2.94-5.43,9.89-5.43,9.89l-16.62,.63-4.84-9.93c-6.18,1.4-15.61,3.57-20.86,5,7.74,9.43,19.48,15.46,32.64,15.46s25.93-6.57,33.64-16.72v-.02Z"/><g class="cls-10"><path d="M40.34,77.39h-.02c-1.02,0-1.7-.52-2.1-1.06-.37,.5-1.09,.97-2.22,.94-.64-.01-1.16-.22-1.53-.61-.31-.33-.47-.72-.54-1.04-.79,.28-1.95,.37-2.73-.62-.56-.7-.33-1.51,.06-2.11-.52-.09-1.16-.34-1.56-1.02-.41-.69-.24-1.38,.05-1.89-.47-.1-1.02-.36-1.36-1.01-.34-.66-.15-1.27,.12-1.71-.46-.05-1-.21-1.38-.59-.15-.16-.15-.41,0-.57,.16-.16,.41-.15,.57,0,.41,.41,1.3,.4,1.61,.36,.17-.03,.35,.07,.42,.24,.07,.16,.03,.35-.11,.47,0,0-.88,.74-.52,1.43,.4,.76,1.35,.63,1.39,.63,.17-.03,.35,.07,.42,.23,.07,.16,.03,.35-.1,.47-.04,.03-.88,.77-.43,1.54,.49,.83,1.62,.65,1.64,.65,.17-.03,.35,.06,.42,.22,.08,.16,.04,.35-.09,.47-.01,0-1.09,1.01-.54,1.7,.8,1.01,2.16,.21,2.22,.18,.12-.07,.28-.07,.41,0s.2,.21,.2,.35,.02,1.41,1.37,1.44c1.6,.05,1.77-1.06,1.78-1.1,.02-.19,.17-.33,.36-.35,.21-.02,.36,.1,.42,.28,.02,.05,.41,1.27,1.76,1.28h0c1.35,0,1.58-1.11,1.6-1.24,.03-.17,.16-.3,.33-.33,.17-.03,.34,.05,.42,.2,.03,.05,.66,1.15,1.93,1.19,1.24,.04,1.63-1.15,1.63-1.16,.05-.15,.18-.26,.33-.28,.16-.02,.31,.05,.39,.19,0,0,.85,1.35,1.97,1.26,.3-.03,.51-.13,.63-.29,.21-.29,.14-.72,.14-.72-.04-.2,.08-.39,.26-.45,.19-.07,.4,.02,.49,.2,.05,.09,.5,.88,1.62,.55,.31-.09,.41-.24,.45-.35,.18-.44-.13-1.2-.26-1.43-.09-.16-.05-.36,.08-.49,.13-.12,.34-.14,.49-.04,.06,.04,1.38,.89,2.23-.06,.59-.67-.44-1.72-.45-1.73-.12-.13-.15-.32-.07-.47,.08-.16,.26-.24,.43-.2,.05,0,1.15,.23,1.67-.56,.49-.74-.31-1.53-.35-1.56-.13-.12-.16-.32-.08-.48,.08-.16,.27-.24,.44-.2,.04,0,.99,.19,1.42-.55,.4-.67-.43-1.45-.44-1.46-.13-.12-.17-.31-.09-.47,.08-.16,.25-.25,.43-.21,.31,.06,1.2,.12,1.63-.27,.16-.15,.42-.14,.56,.03,.15,.16,.14,.42-.03,.56-.4,.37-.95,.49-1.41,.52,.25,.46,.4,1.08,.03,1.72-.37,.63-.94,.86-1.41,.94,.27,.53,.4,1.22-.05,1.89-.43,.66-1.08,.88-1.61,.94,.35,.62,.54,1.44-.05,2.12-.69,.79-1.61,.82-2.35,.61,.08,.37,.1,.8-.05,1.18-.11,.28-.38,.64-.97,.81-.81,.23-1.44,.06-1.89-.23-.04,.12-.11,.25-.2,.36-.26,.35-.67,.56-1.2,.61-1.03,.11-1.86-.58-2.32-1.09-.38,.55-1.03,1.1-2.11,1.09-1.01-.03-1.72-.54-2.14-.98-.33,.58-.98,1.16-2.11,1.16l.04-.03Z"/></g><path d="M53.91,27.22s0,0,0,0c-1.42-.96-3.32,.48-3.69,.8-1.06,.95-1.79,1.76-2.27,2.37-.48,.61-1.19,.37-1.74-.15,0,0-.01,0-.02-.01-7.94-4.81-8.94-10.88-9.06-11.94,0-.07-.09-.12-.16-.08-4.8,2.85-6.43,7.12-7.47,7.78-.06,.04-.12,0-.12-.08-.03-3.78,1.15-6.59,1.63-7.79,1.41-2.62,3.67-5.35,6.11-6.67,1.82-.98,6.69-2.62,11.73,.57,3.79,2.4,4.29,4.11,4.35,4.42,0,.03,.03,.06,.05,.08,.92,.57,1.48,1.98,1.65,4.57,.22,3.25-.96,6.06-.99,6.13,0,0,0,0,0,0Z"/><path d="M58.16,37.59c-.46-1.67-2.15-3.63-4.24-4.41-1.39,1.78-3.33,2.66-3.33,2.66,0,0-.12,2.74,.5,8.13,1.05,.77,2.97,1.18,4.48,.55,2.57-1.05,3.48-3.73,2.59-6.94h0Z"/><path d="M32.13,28.31c.26-.26,.26-.67,0-.93-.26-.26-.67-.26-.93,0-.26,.26-.26,.67,0,.93,.26,.26,.67,.26,.93,0Z"/><path d="M37.97,29.18c.26-.26,.26-.67,0-.93-.26-.26-.67-.26-.93,0-.26,.26-.26,.67,0,.93,.26,.26,.67,.26,.93,0Z"/><path d="M38.01,28.39s.38,.18,.88,0c0,0-.22,.48-.92,.48l.03-.49h0Z"/><path d="M31.38,27.29s-.42,.01-.81-.35c0,0,0,.54,.65,.82l.16-.47Z"/><path class="cls-8" d="M34.86,38.23s1.59,0,3.74-.8c.03,0,.07-.02,.08,.02,.14,.4,.33,1.45-.69,1.96-1.27,.64-2.69,.1-3.02-1.16"/><path class="cls-3" d="M38.5,38.32s-.95,.67-2.92,.59l-.41-.5,3.6-.84-.27,.75Z"/><path d="M36.98,40.07c-.45,0-.92-.11-1.31-.32-.48-.26-.84-.66-1.03-1.15h-.24c-.22,0-.4-.18-.4-.41s.18-.4,.41-.4c0,0,2.17,0,4.05-.73,.22-.09,.47,0,.58,.21l.02,.03c.14,.4,.2,1.06-.08,1.63-.24,.48-.67,.83-1.28,1.03-.22,.07-.47,.11-.72,.11Zm-1.46-1.53c.13,.2,.31,.37,.54,.49,.49,.26,1.05,.27,1.39,.16,.39-.13,.66-.33,.8-.61,.1-.21,.12-.43,.11-.62-1.03,.35-2.08,.51-2.84,.59h0Z"/><path class="cls-7" d="M28.9,31.26c1.11,.21,2.1-.11,2.22-.73,.12-.62-.68-1.29-1.79-1.5-1.11-.21-2.1,.11-2.22,.73-.12,.62,.68,1.29,1.79,1.5Z"/><path class="cls-7" d="M39.39,32.97c1.15,0,2.09-.53,2.09-1.18s-.93-1.18-2.09-1.18-2.09,.53-2.09,1.18,.93,1.18,2.09,1.18Z"/><path class="cls-4" d="M68.5,25.97c-3.91-2.74-12.15-3.55-12.15-3.55,1.57-11.08-4.62-14.74-13.93-15.41-7.87-.56-11.56,8-12.65,11.16-3.78,.14-7.54,.46-7.54,.46,4.37,0,8.35,.96,8.35,.96,2.38,.6,8.01,2.13,12.67,4.43,13.16,6.51,16.99,8.34,21.95,8.73,4.96,.39,7.59-3.8,3.3-6.79h0Z"/><path d="M31.14,19.74s-7.78-2.03-13.8-.6c-6.02,1.43-6.32,7.79,1.9,9.09,6.07,.96,10.14-.63,10.14-.63,0,0,.87-3.97,1.76-7.86Z"/><path d="M56.33,22.42s-9.85,1-26.43-4.64c0,0,.62-1.73,1.37-3.12,0,0,12.13,4.19,25.3,4.16,0,0,0,1.93-.23,3.58h-.01Z"/></svg>