<?xml version="1.0" encoding="UTF-8"?><svg id="Layer_1" xmlns="http://www.w3.org/2000/svg" xmlns:xlink="http://www.w3.org/1999/xlink" viewBox="0 0 84.4 84.69"><defs><style>.cls-1{fill:none;}.cls-2{clip-path:url(#clippath);}.cls-3{fill:#fff;}.cls-4{fill:#f25178;}.cls-5{fill:#ff88a2;}.cls-6{fill:#d0fff7;}.cls-7{fill:#47d3ff;}.cls-8{isolation:isolate;opacity:.2;}</style><clipPath id="clippath"><rect class="cls-1" x=".02" y=".31" width="84.38" height="84.38"/></clipPath></defs><g class="cls-2"><path class="cls-6" d="M42.19,84.38c23.3,0,42.19-18.89,42.19-42.19S65.49,0,42.19,0,0,18.89,0,42.19s18.89,42.19,42.19,42.19Z"/></g><path class="cls-4" d="M75.7,67.65c-7.65-1.89-17.97-4.19-21.05-4.88-.73-3.04-1.58-6.98-2.42-11.75-1.78-10.09-1.55-15.2-1.55-15.2,0,0,2.93-1.33,3.98-3.82,1-2.39,.33-4.34-1.24-5.12-1.46-.72-3.47,1.03-3.47,1.03,0,0,1.36-9.17-4.95-12.44-3.11-1.62-12.04-3.22-13.9,4.22-3.58,14.29-4.92,25.69-.8,27.68,2.31,1.12,6.36-.64,6.36-.64l-1.23,16.04c-3.81,.84-18.81,4.19-26,6.15,7.74,9.43,19.48,15.46,32.64,15.46s25.93-6.57,33.64-16.72h-.01Z"/><path class="cls-8" d="M36.66,46.73s4.44-1.48,7.86-4.74v3.84s-3.24,4.45-8.29,6.45l.43-5.55Z"/><path d="M50.3,30.71s-.1,0-.15-.03c-.21-.08-.32-.33-.23-.54,.52-1.31,1.74-1.61,1.79-1.62,.22-.05,.44,.09,.5,.31,.05,.22-.09,.44-.31,.5-.04,0-.85,.22-1.21,1.12-.06,.16-.22,.26-.39,.26Z"/><path d="M33.81,35.85h-.06s-1.7-.24-2.12-.35c-.19-.05-.28-.2-.28-.2-.09-.14-.11-.31-.06-.46l2.06-6.16c.07-.22,.3-.34,.52-.26,.22,.07,.33,.31,.26,.52l-1.95,5.83,1.68,.26c.23,.03,.38,.25,.35,.47-.03,.21-.21,.35-.41,.35h.01Z"/><path class="cls-3" d="M75.76,67.68c-7.65-1.89-17.97-4.19-21.05-4.88,0-.03-.02-.07-.02-.1-1.62,1.19-9.68,6.78-17.15,5.89-5.3-.64-3.28-4.42-2.43-5.71-4.34,.96-18.65,4.17-25.62,6.06,7.74,9.43,19.48,15.46,32.64,15.46s25.93-6.57,33.64-16.72h-.01Z"/><path class="cls-7" d="M60.61,64.13c-1.63-.37-3.06-.69-4.19-.94-4.59,3.96-6.27,12.5-6.27,12.5-10.75,.72-20.6-1.55-20.6-1.55-.15-3.66,.96-7.62,2.64-10.61-1.1,.25-2.36,.53-3.73,.84-2.75,4.48-1.94,8.68-3.06,10.3,0,0-1.04,.77-1.47,1.22-.21,.22-.58,1.79-1.01,3.87,5.76,2.95,12.29,4.63,19.21,4.63,6.1,0,11.9-1.3,17.14-3.64-.14-.91-.25-1.6-.3-1.91-.13-.8-3.62-2.86-3.62-2.86-.31-4.31,1.68-8.54,3.56-10.46,.54-.55,1.13-1.01,1.71-1.41v.02Z"/><path d="M28.43,69.69c-.09,0-.18,0-.27-.02-.61-.08-.94-.38-1.11-.61-.38-.52-.29-1.15-.28-1.22,.04-.23,.23-.4,.49-.37l2.44,.25c.13,.01,.25,.08,.32,.19s.1,.24,.07,.37c-.12,.51-.63,1.42-1.67,1.42h.01Zm-.71-1.28s.04,.08,.06,.11c.1,.13,.26,.21,.5,.25,.33,.05,.54-.07,.69-.23l-1.25-.13Z"/><path d="M53.8,71.5c-.12,0-.24,0-.37-.03-.61-.09-1.08-.36-1.38-.78-.47-.66-.34-1.44-.32-1.53,.04-.23,.25-.4,.49-.36l3.3,.39c.13,.02,.25,.08,.32,.19s.1,.24,.06,.37c-.17,.64-.81,1.76-2.1,1.76h0Zm-1.18-1.76c.02,.14,.07,.29,.17,.43,.15,.21,.42,.35,.78,.41,.66,.1,1.04-.25,1.25-.58l-2.19-.26h-.01Z"/><path d="M57.5,38.62c7.4,13.33,15.21,16.48,14.65,28.61-7.88-1.73-18.57-3.88-18.57-3.88,0,0-3.72-17.62-3.32-27.24,0,0,1.95-1.19,3.2-2.7,.31-.38,.63-.81,.87-1.27,0,0,1.25,2.98,3.19,6.48h-.01Z"/><path d="M54.53,24.5c.35-2.68-.45-6.27-1.92-7.24,0,0-.29-1.5-2.89-3.56-4.99-3.95-9.97-2.23-12.34-1.29-8.06,2.6-8.53,12.72-8.55,14.61,0,.1,.12,.13,.17,.05,1.79-2.61,4.68-7.07,8.92-7.78,0,0,0,4.52,1.91,7.83,2.78,4.83,5.83,6.56,6.75,4.83,1.47-2.76,2.76-4.12,4.69-4.83,1.07-.39,1.74-.17,2.39,.31,0,0,.69-1.55,.88-2.96v.02Z"/><path d="M33.18,27.09l-1.76-.19c-.23-.03-.42,.14-.45,.36-.02,.22,.14,.42,.36,.45l.72,.08s-.04,.09-.05,.15c-.03,.26,.16,.5,.42,.53,.26,.03,.5-.16,.53-.42,0-.05,0-.1-.01-.15l.15,.02h.04c.2,0,.38-.15,.4-.36,.02-.22-.14-.42-.36-.45v-.02Z"/><path d="M39.87,27.81l-2.14-.23c-.24-.03-.42,.14-.45,.36-.02,.22,.14,.42,.36,.45l1.15,.12s-.04,.08-.04,.13c-.03,.26,.16,.5,.42,.53s.5-.16,.53-.42c0-.05,0-.09-.01-.13h.09s.03,0,.04,0c.2,0,.38-.15,.4-.36,.02-.22-.14-.42-.36-.45h.01Z"/><path d="M35.91,39.91c-.07,0-.14,0-.21-.02-.19-.04-.46-.17-.64-.52-.14-.28-.11-.54,0-.77-.12-.05-.24-.11-.34-.2-.15-.14-.23-.32-.23-.53,0-.26,.09-.49,.26-.66,.3-.29,.71-.29,.79-.29,.22,0,.4,.19,.39,.42,0,.22-.17,.37-.38,.37-.08,0-.23,0-.23,.08,0,.13,.33,.11,.54,.13,.23,.03,.35,.07,.41,.25s-.02,.33-.18,.44c-.25,.17-.29,.31-.29,.37,0,.09,.08,.11,.09,.11,.18,.04,.37-.11,.51-.23,.18-.14,.43-.11,.57,.06,.14,.17,.11,.43-.06,.57-.09,.07-.53,.41-1.01,.41h.01Z"/><path class="cls-5" d="M28.92,31.26c1.11,.21,2.1-.11,2.22-.73,.12-.62-.68-1.29-1.79-1.5-1.11-.21-2.1,.11-2.22,.73-.12,.62,.68,1.29,1.79,1.5Z"/><path class="cls-5" d="M39.42,32.97c1.15,0,2.09-.53,2.09-1.18s-.93-1.18-2.09-1.18-2.09,.53-2.09,1.18,.93,1.18,2.09,1.18Z"/></svg>