<?xml version="1.0" encoding="UTF-8"?><svg id="Layer_1" xmlns="http://www.w3.org/2000/svg" xmlns:xlink="http://www.w3.org/1999/xlink" viewBox="0 0 84.44 84.49"><defs><style>.cls-1{fill:none;}.cls-2{clip-path:url(#clippath);}.cls-3{fill:#fff;}.cls-4{fill:#ffdd2a;}.cls-5{fill:#f25178;}.cls-6{fill:#ff88a2;}.cls-7{fill:#d6ccff;}.cls-8{fill:#47d3ff;}.cls-9{clip-path:url(#clippath-1);}.cls-10{clip-path:url(#clippath-2);}.cls-11{isolation:isolate;opacity:.2;}</style><clipPath id="clippath"><rect class="cls-1" x=".06" y=".11" width="84.38" height="84.38"/></clipPath><clipPath id="clippath-1"><rect class="cls-1" x=".06" y=".11" width="84.38" height="84.38"/></clipPath><clipPath id="clippath-2"><rect class="cls-1" x=".06" y=".11" width="84.38" height="84.38"/></clipPath></defs><g class="cls-2"><path class="cls-7" d="M42.19,84.38c23.3,0,42.19-18.89,42.19-42.19S65.49,0,42.19,0,0,18.89,0,42.19s18.89,42.19,42.19,42.19Z"/></g><g class="cls-9"><g><path class="cls-5" d="M75.74,67.45c-7.65-1.89-17.97-4.19-21.05-4.88-.73-3.04-1.58-6.98-2.42-11.75-1.78-10.09-1.55-15.2-1.55-15.2,0,0,2.93-1.33,3.98-3.82,1-2.39,.33-4.34-1.24-5.12-1.46-.72-3.47,1.03-3.47,1.03,0,0,1.36-9.17-4.95-12.44-3.11-1.62-12.04-3.22-13.9,4.22-3.58,14.29-4.92,25.69-.8,27.68,2.31,1.12,6.36-.64,6.36-.64l-1.23,16.04c-3.81,.84-18.81,4.19-26,6.15,7.74,9.43,19.48,15.46,32.64,15.46s25.93-6.57,33.64-16.72h-.01Z"/><path class="cls-11" d="M36.7,46.53s4.44-1.48,7.86-4.74v3.84s-3.24,4.45-8.29,6.45l.43-5.55Z"/><path d="M50.34,30.51s-.1,0-.15-.03c-.21-.08-.32-.33-.23-.54,.52-1.31,1.74-1.61,1.79-1.62,.22-.05,.44,.09,.5,.31,.05,.22-.09,.44-.31,.5-.04,0-.85,.22-1.21,1.12-.06,.16-.22,.26-.39,.26Z"/><path d="M33.85,35.65h-.06s-1.7-.24-2.12-.35c-.19-.05-.28-.2-.28-.2-.09-.14-.11-.31-.06-.46l2.06-6.16c.07-.22,.3-.34,.52-.26,.22,.07,.33,.31,.26,.52l-1.95,5.83,1.68,.26c.23,.03,.38,.25,.35,.47-.03,.21-.21,.35-.41,.35h0Z"/></g></g><g class="cls-10"><g><path class="cls-3" d="M75.8,67.48c-7.65-1.89-17.97-4.19-21.05-4.88,0-.03-.02-.07-.02-.1-1.62,1.19-9.68,6.78-17.15,5.89-5.3-.64-3.28-4.42-2.43-5.71-4.34,.96-18.65,4.17-25.62,6.06,7.74,9.43,19.48,15.46,32.64,15.46s25.93-6.57,33.64-16.72h0Z"/><path class="cls-8" d="M60.65,63.93c-1.63-.37-3.06-.69-4.19-.94-4.59,3.96-6.27,12.5-6.27,12.5-10.75,.72-20.6-1.55-20.6-1.55-.15-3.66,.96-7.62,2.64-10.61-1.1,.25-2.36,.53-3.73,.84-2.75,4.48-1.94,8.68-3.06,10.3,0,0-1.04,.77-1.47,1.22-.21,.22-.58,1.79-1.01,3.87,5.76,2.95,12.29,4.63,19.21,4.63,6.1,0,11.9-1.3,17.14-3.64-.14-.91-.25-1.6-.3-1.91-.13-.8-3.62-2.86-3.62-2.86-.31-4.31,1.68-8.54,3.56-10.46,.54-.55,1.13-1.01,1.71-1.41v.02Z"/><path d="M28.47,69.49c-.09,0-.18,0-.27-.02-.61-.08-.94-.38-1.11-.61-.38-.52-.29-1.15-.28-1.22,.04-.23,.23-.4,.49-.37l2.44,.25c.13,0,.25,.08,.32,.19s.1,.24,.07,.37c-.12,.51-.63,1.42-1.67,1.42h.01Zm-.71-1.28s.04,.08,.06,.11c.1,.13,.26,.21,.5,.25,.33,.05,.54-.07,.69-.23l-1.25-.13Z"/><path d="M53.84,71.3c-.12,0-.24,0-.37-.03-.61-.09-1.08-.36-1.38-.78-.47-.66-.34-1.44-.32-1.53,.04-.23,.25-.4,.49-.36l3.3,.39c.13,.02,.25,.08,.32,.19s.1,.24,.06,.37c-.17,.64-.81,1.76-2.1,1.76h0Zm-1.18-1.76c.02,.14,.07,.29,.17,.43,.15,.21,.42,.35,.78,.41,.66,.1,1.04-.25,1.25-.58l-2.19-.26h-.01Z"/></g></g><path d="M59.57,42.75c-7.17-14.89-4.18-25.3-5.86-29.21-1.17-2.73-4.85-3.39-6.39-.8-1.59-.99-3.67-1.51-5.33-1.56-4.82-.14-10.03,1.56-12.3,11.65-.16,1.08-.18,1.88-.18,2.34,0,.11,.13,.13,.17,.03,.68-1.83,1.6-3.91,3.23-5.54,0,0,1.85,3.21,5.31,5.3,4.4,2.67,5.8,2.4,4.45-.5,0,0,4.7,8.05,5.86,5.82,0,0,.33-1.71,2.19-2.89,.61-.39,1.46-.61,2.03-.52,.52,.08,1.03,.3,1.27,.52,1.5,1.31,1.17,3.32,.24,5.12-.88,1.74-3.68,3.2-3.68,3.2-.22,2.46,.76,11.51,1.25,13.43,.52-.16,.28-.2,.75-.38,.22-.09,0-2.03,.22-2.12,.25-.11,.69,1.59,.96,1.59,.9-.02,1.69-.38,2.23-1.17,.12-.16-1.06-2.75-.92-5.23,.02-.35,.73,4.27,1.89,4.6,.95,.27,1.73-.86,2.18-1.49,.47-.67,.79-1.43,.43-2.19h-.01Z"/><path class="cls-4" d="M47.35,12.77c.63,.14,2.13,1,3.13,3.27,.18-1.09-.2-3.27-3.13-3.27Z"/><path d="M32.19,28.11c.26-.26,.26-.67,0-.93-.26-.26-.67-.26-.93,0-.26,.26-.26,.67,0,.93,.26,.26,.67,.26,.93,0Z"/><path d="M38.03,28.98c.26-.26,.26-.67,0-.93-.26-.26-.67-.26-.93,0-.26,.26-.26,.67,0,.93,.26,.26,.67,.26,.93,0Z"/><path d="M38.07,28.19s.38,.18,.88,0c0,0-.22,.48-.91,.48l.03-.49h0Z"/><path d="M31.44,27.09s-.42,.01-.81-.35c0,0,0,.54,.65,.82l.17-.47Z"/><path d="M37.5,37.71s-.57-.13-.71-.69c-.05-.22-.27-.35-.49-.29-.22,.05-.35,.28-.29,.49,.04,.16,.1,.29,.16,.41-.24,.75-1.17,.73-1.22,.74-.25-.02-.41,.16-.42,.39,0,.23,.16,.41,.39,.42h.07c.5,0,1.34-.21,1.77-.91,.29,.18,.55,.24,.57,.24h.08c.19,0,.35-.13,.39-.32,.05-.22-.09-.43-.31-.48h.01Z"/><path class="cls-6" d="M28.96,31.06c1.11,.21,2.1-.11,2.22-.73,.12-.62-.68-1.29-1.79-1.5-1.11-.22-2.1,.11-2.22,.73-.12,.61,.68,1.29,1.79,1.5Z"/><path class="cls-6" d="M39.45,32.77c1.15,0,2.09-.53,2.09-1.18s-.93-1.18-2.09-1.18-2.09,.53-2.09,1.18,.93,1.18,2.09,1.18Z"/></svg>