<?xml version="1.0" encoding="UTF-8"?><svg id="Layer_1" xmlns="http://www.w3.org/2000/svg" xmlns:xlink="http://www.w3.org/1999/xlink" viewBox="0 0 84.4 84.69"><defs><style>.cls-1{fill:none;}.cls-2{clip-path:url(#clippath);}.cls-3{fill:#ffdd2a;}.cls-4{fill:#ff9fb6;}.cls-5{fill:#ff88a2;}.cls-6{fill:#ddac22;}.cls-7{fill:#d0fff7;}.cls-8{fill:#ad7e14;}.cls-9{fill:#dd2c52;}.cls-10{clip-path:url(#clippath-1);}.cls-11{clip-path:url(#clippath-2);}.cls-12{isolation:isolate;opacity:.2;}</style><clipPath id="clippath"><rect class="cls-1" x=".02" y=".31" width="84.38" height="84.38"/></clipPath><clipPath id="clippath-1"><rect class="cls-1" x=".02" y=".31" width="84.38" height="84.38"/></clipPath><clipPath id="clippath-2"><rect class="cls-1" x=".02" y=".31" width="84.38" height="84.38"/></clipPath></defs><g class="cls-2"><path class="cls-7" d="M42.19,84.38c23.3,0,42.19-18.89,42.19-42.19S65.49,0,42.19,0,0,18.89,0,42.19s18.89,42.19,42.19,42.19Z"/></g><g class="cls-10"><g><path class="cls-4" d="M75.7,67.65c-7.65-1.89-17.97-4.19-21.05-4.88-.73-3.04-1.58-6.98-2.42-11.75-1.78-10.09-1.55-15.2-1.55-15.2,0,0,2.93-1.33,3.98-3.82,1-2.39,.33-4.34-1.24-5.12-1.46-.72-3.47,1.03-3.47,1.03,0,0,1.36-9.17-4.95-12.44-3.11-1.62-12.04-3.22-13.9,4.22-3.58,14.29-4.92,25.69-.8,27.68,2.31,1.12,6.36-.64,6.36-.64l-1.23,16.04c-3.81,.84-18.81,4.19-26,6.15,7.74,9.43,19.48,15.46,32.64,15.46s25.93-6.57,33.64-16.72h-.01Z"/><path class="cls-12" d="M36.66,46.73s4.44-1.48,7.86-4.74v3.84s-3.24,4.45-8.29,6.45l.43-5.55Z"/><path d="M50.3,30.71c-.05,0-.1,0-.15-.03-.21-.08-.32-.33-.23-.54,.52-1.31,1.74-1.61,1.79-1.62,.22-.05,.44,.09,.5,.31,.05,.22-.09,.44-.31,.5-.04,0-.85,.22-1.21,1.12-.06,.16-.22,.26-.39,.26Z"/><path d="M33.81,35.85h-.06s-1.7-.24-2.12-.35c-.19-.05-.28-.2-.28-.2-.09-.14-.11-.31-.06-.46l2.06-6.16c.07-.22,.3-.34,.52-.26,.22,.07,.33,.31,.26,.52l-1.95,5.83,1.68,.26c.23,.03,.38,.25,.35,.47-.03,.21-.21,.35-.41,.35h0Z"/></g></g><g class="cls-11"><g><path class="cls-3" d="M42.03,84.38c13.73,0,25.93-6.57,33.64-16.72-2.33-.58-4.92-1.19-7.47-1.79-21.66,4.49-38.98,2.58-48.8,.56-3.76,.89-7.4,1.78-10.01,2.49,7.74,9.43,19.48,15.46,32.64,15.46Z"/><path class="cls-8" d="M29.78,82.36l-1.19-3.32s1.5,.5,1.88,1.53c.18,.5-.69,1.19-.69,1.8h0Z"/><path class="cls-8" d="M43.1,83.44l1.17-4.15s-2.67,.63-2.64,1.37c.03,.74,1.08,1.74,1.47,2.78Z"/><path class="cls-8" d="M53.32,82.42l-2-3.44s2.2,.48,2.37,1.06-.53,1.87-.37,2.38Z"/><path class="cls-6" d="M53.96,82.13c-.09-.09-.34-.33,.02-1.04,.34-.67,.2-1.29-.41-1.74-1.91-1.44-8.97-1-11.4,.24l1.04-6.87c.03-.2-.11-.4-.31-.43-.21-.04-.4,.11-.43,.31l-1.2,7.9c-.05,.23-.01,.46,.13,.68l.34,.52c.48,.72,.89,1.34,.82,1.55-.05,.14-.41,.32-1.09,.53-1.65,.53-10.04-.23-11.06-1.75-.08-.12-.14-.26,.1-.54,.24-.28,.33-.58,.31-.89v-.02l.12-2.41c0-.21-.15-.38-.36-.39-.24-.02-.38,.15-.39,.36l-.07,1.37c-1.87-1.5-7.13-2.44-9.33-2.06l2.41-5.58c.08-.19,0-.41-.2-.49-.19-.08-.41,0-.49,.2l-2.73,6.32s-.06,.08-.09,.12c.21,.13,.42,.25,.63,.37h0c.04-.07,.2-.1,.23-.11,1.83-.67,8.33,.6,9.4,2.13,.16,.23,.15,.4-.04,.62-.54,.64-.33,1.18-.15,1.44,.04,.06,.1,.12,.15,.17,3.83,1.14,7.88,1.76,12.07,1.76h.02c.66-.24,1.09-.48,1.23-.88,.2-.56-.19-1.14-.9-2.21l-.34-.52s-.03-.04-.03-.07v-.06s.05-.08,.11-.13c1.38-1.29,9.19-1.92,11.01-.55,.31,.23,.36,.46,.19,.8-.5,.99-.21,1.58,.13,1.91,.04,.04,.09,.06,.14,.1,.35-.1,.7-.2,1.05-.3-.28-.08-.51-.18-.66-.33l.03-.03Z"/><path class="cls-6" d="M65.26,75.61c-.72,.32-1.3,.64-1.73,.96l.82-4.83c.03-.2-.1-.4-.31-.43-.21-.04-.4,.1-.43,.31l-1.03,6.09c-.03,.09-.04,.19-.05,.28v.16s0,.04,.02,.06c.04,.27,.16,.49,.31,.69,.22-.12,.43-.25,.64-.37-.11-.14-.2-.28-.22-.45l.03-.2c.09-.21,.39-.58,1.32-1.1,.97-.54,2.2-1.01,3.46-1.41,.5-.39,.99-.79,1.47-1.21-1.56,.42-3.13,.95-4.3,1.47v-.02Z"/><path class="cls-8" d="M64.85,76.22s-2.03,1.05-1.96,1.85c.02,.2,.15,.41,.32,.61,.56-.33,1.11-.68,1.66-1.03l-.02-1.43Z"/><path class="cls-8" d="M20.07,78.15s-.02,.03-.03,.05c.42,.26,.85,.51,1.29,.76l1.43-1.25s-2.27-.06-2.69,.44Z"/></g></g><path d="M57.5,38.62c7.4,13.33,15.21,16.48,14.65,28.61-7.88-1.73-18.57-3.88-18.57-3.88,0,0-3.72-17.62-3.32-27.24,0,0,1.95-1.19,3.2-2.7,.31-.38,.64-.81,.87-1.27,0,0,1.25,2.98,3.19,6.48h-.01Z"/><path d="M54.53,24.5c.35-2.68-.45-6.27-1.92-7.24,0,0-.29-1.5-2.89-3.56-4.99-3.95-9.97-2.23-12.34-1.29-8.06,2.6-8.53,12.72-8.55,14.61,0,.1,.12,.13,.17,.05,1.79-2.61,4.68-7.07,8.92-7.78,0,0,0,4.52,1.91,7.83,2.78,4.83,5.82,6.56,6.75,4.83,1.47-2.76,2.76-4.12,4.69-4.83,1.07-.39,1.74-.17,2.39,.31,0,0,.69-1.55,.88-2.96v.02Z"/><path d="M33.31,28.33c-.14,0-.27-.07-.35-.2-.14-.23-.3-.37-.48-.4-.26-.05-.57,.13-.66,.2-.18,.14-.43,.11-.57-.07-.14-.17-.11-.43,.06-.57,.06-.05,.63-.48,1.3-.37,.29,.05,.7,.23,1.03,.78,.12,.19,.05,.44-.14,.56-.07,.04-.14,.06-.21,.06h.02Z"/><path d="M40.06,29.22c-.13,0-.26-.06-.33-.18-.01-.01-.28-.39-.67-.45-.23-.04-.45,.03-.7,.21-.18,.13-.43,.09-.56-.09-.13-.18-.09-.44,.09-.57,.43-.31,.88-.42,1.32-.34,.72,.13,1.15,.72,1.19,.79,.13,.18,.08,.44-.11,.56-.07,.05-.15,.07-.23,.07Z"/><path d="M35.11,37.82c.25,.91,1.13,1.88,2.18,1.34,.94-.48,.62-1.62,.51-1.91,0-.02-.03-.03-.06,0-1.44,.87-3.32,.51-3.32,.51l.68,.07h0Z"/><path class="cls-9" d="M38,37.9c-.08,.52-.31,1.03-.9,1.18-.33,.08-.64,.06-.92-.05,.53-1.26,1.77-1.14,1.81-1.13h0Z"/><path d="M36.68,39.72c-.22,0-.44-.05-.66-.14-.52-.23-.98-.75-1.22-1.38-.26-.02-.43-.05-.45-.06-.22-.04-.36-.25-.32-.47,.04-.22,.25-.37,.47-.32,.02,0,1.75,.31,3.04-.46l.16-.1s.14-.09,.21-.06c.07,.03,.14,.11,.17,.18,.02,.05,.08,.15,.1,.2,.33,.78,.27,1.91-.71,2.41-.26,.13-.53,.2-.79,.2Zm-.97-1.51c.17,.29,.4,.51,.64,.62,.25,.11,.49,.1,.75-.04,.42-.22,.46-.65,.42-.99-.62,.27-1.27,.38-1.81,.41Z"/><path class="cls-5" d="M28.92,31.26c1.11,.21,2.1-.11,2.22-.73,.12-.62-.68-1.29-1.79-1.5-1.11-.22-2.1,.11-2.22,.73-.12,.61,.68,1.29,1.79,1.5Z"/><path class="cls-5" d="M39.41,32.97c1.15,0,2.09-.53,2.09-1.18s-.93-1.18-2.09-1.18-2.09,.53-2.09,1.18,.93,1.18,2.09,1.18Z"/></svg>