<?xml version="1.0" encoding="UTF-8"?><svg id="Layer_1" xmlns="http://www.w3.org/2000/svg" xmlns:xlink="http://www.w3.org/1999/xlink" viewBox="0 0 84.6 84.69"><defs><style>.cls-1{fill:none;}.cls-2{clip-path:url(#clippath);}.cls-3{fill:#fff;}.cls-4{fill:#ffe1e1;}.cls-5{fill:#ff9fb6;}.cls-6{fill:#ffe8d8;}.cls-7{fill:#ff4135;}.cls-8{fill:#ff88a2;}.cls-9{clip-path:url(#clippath-1);}.cls-10{clip-path:url(#clippath-2);}.cls-11{isolation:isolate;opacity:.2;}</style><clipPath id="clippath"><rect class="cls-1" x=".22" y=".31" width="84.38" height="84.38"/></clipPath><clipPath id="clippath-1"><rect class="cls-1" x=".22" y=".31" width="84.38" height="84.38"/></clipPath><clipPath id="clippath-2"><rect class="cls-1" x=".22" y=".31" width="84.38" height="84.38"/></clipPath></defs><g class="cls-2"><path class="cls-6" d="M42.19,84.38c23.3,0,42.19-18.89,42.19-42.19S65.49,0,42.19,0,0,18.89,0,42.19s18.89,42.19,42.19,42.19Z"/></g><g class="cls-9"><g><path class="cls-5" d="M75.89,67.63c-7.65-1.89-17.97-4.19-21.06-4.88-.73-3.04-1.59-6.96-2.43-11.75-1.78-10.09-1.55-15.19-1.55-15.2,0,0,.11-.05,.28-.14,.75-.4,2.85-1.65,3.71-3.68,1-2.39,.33-4.34-1.24-5.12-.37-.18-.77-.21-1.16-.14-1.18,.19-2.31,1.17-2.31,1.17,0,0,1.39-9.77-6.85-12.21-7.06-2.09-11.44,1.05-13.01,8.52-2.62,12.52-3.56,18.79,1.86,21.92,2.08,1.2,4.7,.59,4.7,.59l-1.24,16.04c-3.82,.85-18.85,4.2-26.02,6.15,7.74,9.45,19.49,15.48,32.66,15.48s25.96-6.58,33.66-16.75Z"/><path class="cls-11" d="M36.84,46.71s4.52-.81,7.86-4.74v3.84s-3.24,4.45-8.29,6.45l.43-5.55Z"/><path d="M50.48,30.69c-.05,0-.1,0-.15-.03-.21-.08-.32-.33-.23-.54,.52-1.31,1.74-1.61,1.79-1.62,.22-.05,.44,.09,.5,.31,.05,.22-.09,.44-.31,.5-.04,0-.85,.22-1.21,1.12-.06,.16-.22,.26-.39,.26Z"/><path d="M33.98,35.83h-.06s-1.7-.24-2.12-.35c-.19-.05-.28-.2-.28-.2-.09-.14-.11-.31-.06-.46l2.06-6.16c.07-.22,.3-.34,.52-.26,.22,.07,.33,.31,.26,.52l-1.95,5.83,1.68,.26c.23,.03,.38,.25,.35,.47-.03,.21-.21,.35-.41,.35h.01Z"/></g></g><g class="cls-10"><g><path class="cls-7" d="M75.89,67.68c-7.65-1.89-17.97-4.19-21.05-4.88,0-.03-.02-.07-.02-.1-1.62,1.19-9.68,6.78-17.15,5.89-5.3-.64-3.28-4.42-2.43-5.71-4.34,.96-18.65,4.17-25.62,6.06,7.74,9.43,19.48,15.46,32.64,15.46s25.93-6.57,33.64-16.72h-.01Z"/><path class="cls-4" d="M55.53,78.45c2.02,0,3.65-1.62,3.65-3.62s-1.64-3.62-3.65-3.62-3.65,1.62-3.65,3.62,1.63,3.62,3.65,3.62Z"/><path class="cls-4" d="M60.89,64.17c.32,1.7,1.82,2.99,3.62,2.99,1.21,0,2.28-.58,2.95-1.48-2.32-.54-4.58-1.06-6.57-1.51Z"/><path class="cls-4" d="M35.09,80.4c-.93-1.54-2.92-2.05-4.45-1.13-1.08,.65-1.63,1.84-1.54,3.03,1.93,.63,3.91,1.15,5.96,1.5,.63-1,.69-2.31,.04-3.39h0Z"/><path class="cls-4" d="M19.52,72.5c2,0,3.63-1.61,3.63-3.6,0-1.2-.6-2.26-1.51-2.91-1.8,.42-3.61,.85-5.33,1.27-.26,.5-.42,1.05-.42,1.64,0,1.99,1.62,3.6,3.63,3.6Z"/><path class="cls-3" d="M37.67,68.6c-5.02-.6-3.48-4.03-2.58-5.48,.05-.08,.09-.16,.13-.22-.25,.06-.55,.12-.86,.19-2.29,2.44-4.01,5.76-2.08,7.66,2.35,2.31,6.06-.69,7.34-2.07-.65,.01-1.31,0-1.96-.08h.01Z"/><path class="cls-3" d="M54.84,62.81s-.02-.07-.02-.1c-1.47,1.08-8.29,5.8-15.14,5.96,.12,1.26,.71,4.2,3.55,4.3,3.48,.13,8.57-3.71,12.11-10.06-.17-.04-.35-.08-.49-.11h0Z"/></g></g><path d="M55.26,29.49c.07,1.51-.72,3.18-1.7,4.24-1.33,1.43-2.75,2.04-2.75,2.04-.1,1.94,.38,8.28,.98,11.85,0,0,11.35,.03,11.4-.93,.3-5.81-4.47-5.64-5.03-8.76-.47-2.66,.49-2.99-.1-5.47-.48-2.03-2.8-2.97-2.8-2.97Z"/><path d="M54.13,27.18c-.14-.1-.29-.18-.44-.24-.59-.25-1.2-.2-1.5-.12-3.58,1.06-3.77,7.08-3.77,7.08-.66,.91-1.44-2.1-1.66-3.03-.45-1.87-1.2-4.05-2.98-5.53-6.06-1.13-7.06-7.45-7.06-7.45-2.39,.82-5.5,4.04-6.31,4.9-.07,.07-.18,.02-.17-.08,.11-.98,.38-2.46,.61-3.25,3.25-10.71,13.78-12.59,21.49-5.27,1.04,.99,1.18,2.27,1.18,2.27,1.73,1.11,1.81,3.89,1.57,6.65-.2,2.23-.97,4.05-.97,4.05h.02Z"/><path d="M39.13,29.2c-.08,0-.16,0-.24-.02-.29-.05-.7-.23-1.03-.78-.12-.19-.05-.44,.14-.56s.44-.05,.56,.14c.14,.23,.3,.37,.48,.4,.27,.05,.57-.13,.66-.2,.18-.14,.43-.11,.57,.07,.14,.17,.11,.43-.06,.57-.05,.04-.5,.39-1.06,.39h-.02Z"/><path d="M32.58,28.34c-.09,0-.18,0-.27-.02-.72-.13-1.15-.73-1.19-.79-.13-.18-.08-.44,.11-.56,.18-.12,.44-.08,.56,.1,0,0,.28,.39,.67,.45,.23,.04,.45-.03,.7-.21,.18-.13,.43-.09,.56,.09,.13,.18,.09,.44-.09,.57-.34,.25-.7,.37-1.05,.37Z"/><path d="M36.11,39.9c-.07,0-.14,0-.21-.02-.19-.04-.46-.17-.64-.52-.14-.28-.11-.54,0-.77-.12-.05-.24-.11-.34-.2-.15-.14-.23-.32-.23-.53,0-.26,.09-.49,.26-.66,.3-.29,.71-.29,.79-.29,.22,0,.4,.19,.39,.42,0,.22-.17,.37-.38,.37-.08,0-.23,.01-.23,.08,.01,.13,.33,.11,.54,.13,.23,.03,.35,.07,.41,.25,.06,.18-.02,.33-.18,.44-.25,.17-.29,.31-.29,.37,0,.09,.08,.11,.09,.11,.18,.04,.37-.11,.51-.23,.18-.14,.43-.11,.57,.06,.14,.17,.11,.43-.06,.57-.09,.07-.53,.41-1.01,.41h0Z"/><path class="cls-8" d="M29.12,31.26c1.11,.21,2.1-.11,2.22-.73,.12-.62-.68-1.29-1.79-1.5-1.11-.22-2.1,.11-2.22,.73-.12,.61,.68,1.29,1.79,1.5Z"/><path class="cls-8" d="M39.61,32.97c1.15,0,2.09-.53,2.09-1.18s-.93-1.18-2.09-1.18-2.09,.53-2.09,1.18,.93,1.18,2.09,1.18Z"/></svg>