<?xml version="1.0" encoding="UTF-8"?><svg id="Layer_1" xmlns="http://www.w3.org/2000/svg" xmlns:xlink="http://www.w3.org/1999/xlink" viewBox="0 0 84.42 84.69"><defs><style>.cls-1{fill:none;}.cls-2{clip-path:url(#clippath);}.cls-3{fill:#ffdd2a;}.cls-4{fill:#f25178;}.cls-5{fill:#ff88a2;}.cls-6{fill:#cfffd7;}.cls-7{fill:#21bfa0;}.cls-8{fill:#19ecc9;}.cls-9{clip-path:url(#clippath-1);}.cls-10{clip-path:url(#clippath-2);}.cls-11{isolation:isolate;opacity:.2;}</style><clipPath id="clippath"><rect class="cls-1" y=".31" width="84.38" height="84.38"/></clipPath><clipPath id="clippath-1"><rect class="cls-1" y=".31" width="84.38" height="84.38"/></clipPath><clipPath id="clippath-2"><rect class="cls-1" y=".31" width="84.38" height="84.38"/></clipPath></defs><g class="cls-2"><path class="cls-6" d="M42.23,84.38c23.3,0,42.19-18.89,42.19-42.19S65.53,0,42.23,0,.04,18.89,.04,42.19s18.89,42.19,42.19,42.19Z"/></g><g class="cls-9"><g><path class="cls-4" d="M75.73,67.66c-7.66-1.89-18.01-4.2-21.1-4.89-.73-3.03-1.58-6.97-2.42-11.74-1.75-9.94-1.55-15.03-1.55-15.18,0,0,2.93-1.33,3.98-3.82,.5-1.2,.58-2.28,.34-3.17-.24-.89-.8-1.57-1.59-1.96-1.45-.72-3.45,1.01-3.46,1.03,.01-.15,.8-9.71-7.12-12.87-4.46-1.77-10.59-.53-12.33,7.13-3.26,14.37-2.45,19.74-1.16,21.58,1.56,2.21,7.3,2.99,7.31,3l-1.23,16.01c-3.79,.84-18.75,4.18-25.96,6.13,7.74,9.44,19.49,15.47,32.65,15.47s25.92-6.56,33.63-16.71h0Z"/><path class="cls-11" d="M36.64,46.74s4.44,.58,7.86-2.68v2.81s-3.24,3.42-8.29,5.42l.43-5.55Z"/><path d="M50.29,30.73c-.05,0-.1,0-.15-.03-.21-.08-.32-.33-.23-.54,.52-1.31,1.74-1.61,1.79-1.62,.22-.05,.44,.09,.5,.31,.05,.22-.09,.44-.31,.5-.04,0-.85,.22-1.21,1.12-.06,.16-.22,.26-.39,.26Z"/><path d="M33.79,35.86h-.06s-1.7-.24-2.12-.35c-.19-.05-.28-.2-.28-.2-.09-.14-.11-.31-.06-.46l2.06-6.16c.07-.22,.3-.34,.52-.26,.22,.07,.33,.31,.26,.52l-1.95,5.83,1.68,.26c.23,.03,.38,.25,.35,.47-.03,.21-.21,.35-.41,.35h0Z"/></g></g><g class="cls-10"><path class="cls-8" d="M63.64,64.83c-3.91-.9-7.28-1.65-8.91-2.01-1.28,.87-9.45,6.15-17.54,5.44-5.78-.5-2.89-4.5-2.15-5.41-1.51,.34-4.31,.96-7.6,1.71-.64,1.19-.12,4.45-1.91,10.08-.63,1.99-1.04,3.97-1.3,5.82,5.4,2.51,11.41,3.92,17.76,3.92,7.46,0,14.45-1.95,20.53-5.34-.82-2.89-1.48-5.87-1.3-8.07,.32-3.85,1.42-5.47,2.43-6.15h-.01Z"/></g><path d="M59.51,42.95c-7.17-14.89-4.18-25.3-5.86-29.21-1.17-2.73-4.85-3.39-6.39-.8-1.59-.99-3.67-1.51-5.33-1.56-4.82-.14-10.03,1.56-12.29,11.65-.16,1.08-.18,1.88-.18,2.34,0,.11,.13,.13,.17,.03,.68-1.83,1.6-3.91,3.23-5.54,0,0,1.85,3.21,5.31,5.3,4.4,2.67,5.8,2.4,4.45-.5,0,0,4.7,8.05,5.86,5.82,0,0,.33-1.71,2.19-2.89,.61-.39,1.46-.61,2.03-.52,.52,.08,1.03,.3,1.27,.52,1.5,1.31,1.17,3.32,.24,5.12-.88,1.74-3.68,3.2-3.68,3.2-.22,2.46,.76,11.51,1.25,13.43,.52-.16,.28-.2,.75-.38,.22-.09,0-2.03,.22-2.12,.25-.11,.69,1.59,.96,1.59,.9-.02,1.69-.38,2.23-1.17,.12-.16-1.06-2.75-.92-5.23,.02-.35,.73,4.27,1.89,4.6,.95,.27,1.73-.86,2.18-1.49,.47-.67,.79-1.43,.43-2.19h-.01Z"/><path class="cls-3" d="M47.29,12.97c.62,.14,2.13,1,3.13,3.27,.18-1.09-.2-3.27-3.13-3.27Z"/><path d="M33.16,27.09l-1.76-.19c-.23-.03-.42,.14-.45,.36-.02,.22,.14,.42,.36,.45l.72,.08s-.04,.09-.05,.15c-.03,.26,.16,.5,.42,.53,.26,.03,.5-.16,.53-.42,0-.05,0-.1-.01-.15l.15,.02h.04c.2,0,.38-.15,.4-.36,.02-.22-.14-.42-.36-.45v-.02Z"/><path d="M39.85,27.81l-2.14-.23c-.24-.03-.42,.14-.45,.36-.02,.22,.14,.42,.36,.45l1.15,.12s-.04,.08-.04,.13c-.03,.26,.16,.5,.42,.53,.26,.03,.5-.16,.53-.42,0-.05,0-.09-.01-.13h.09s.03,0,.04,0c.2,0,.38-.15,.4-.36,.02-.22-.14-.42-.36-.45h.01Z"/><path d="M37.44,37.91s-.57-.13-.71-.69c-.05-.22-.27-.35-.49-.29-.22,.05-.35,.28-.29,.49,.04,.16,.1,.29,.16,.41-.24,.75-1.17,.73-1.22,.74-.25-.02-.41,.16-.42,.39-.01,.23,.16,.41,.39,.42h.07c.5,0,1.34-.21,1.77-.91,.29,.18,.55,.24,.57,.24h.08c.19,0,.35-.13,.39-.32,.05-.22-.09-.43-.31-.48h.01Z"/><path class="cls-5" d="M28.9,31.26c1.11,.21,2.1-.11,2.22-.73,.12-.62-.68-1.29-1.79-1.5-1.11-.22-2.1,.11-2.22,.73-.12,.61,.68,1.29,1.79,1.5Z"/><path class="cls-5" d="M39.39,32.97c1.15,0,2.09-.53,2.09-1.18s-.93-1.18-2.09-1.18-2.09,.53-2.09,1.18,.93,1.18,2.09,1.18Z"/><path d="M31.1,19.75s-.46,1.37-1.19,4.55c0,0-4.54-.44-4.34-2.65,.19-2.21,2.84-3.37,5.53-1.89Z"/><path class="cls-8" d="M52.89,23.14c-3.53-.27-6.65-1.7-11.88-5.54-6.63-4.87-7.94-3.39-7.94-3.39,0,0-.73,.79-1.22,1.74-.38,.76-.73,1.68-.86,2.06-5.04,.4-5.34,3.25-5.34,3.25,.85-2.65,6.75-1.52,11.01,2.15,4.71,4.07,10.36,3.72,12.14,3.49,1.84-.18,2.06-.17,2.8-.37l1.31-3.4h-.01Z"/><path class="cls-7" d="M36.63,23.4c4.71,4.07,10.36,3.72,12.14,3.49,2.39-.17,2.8-.37,2.8-.37,.35-.64,.82-2.09,1.31-3.4,0,0-1.22-.12-1.63-.22-.55-.12-1.2-.29-1.2-.29-1.26,1.64-4.59,3.25-13.43,.77h.02Z"/></svg>